<?xml version="1.0" encoding="utf-8"?>
<!-- Generator: Adobe Illustrator 23.0.4, SVG Export Plug-In . SVG Version: 6.00 Build 0)  -->
<svg version="1.1" id="Calque_1" xmlns="http://www.w3.org/2000/svg" xmlns:xlink="http://www.w3.org/1999/xlink" x="0px" y="0px"
	 viewBox="0 0 1366 768" style="enable-background:new 0 0 1366 768;" xml:space="preserve">
<style type="text/css">
	.st0{opacity:0.6;}
	.st1{fill:#45A85E;}
	.st2{fill:#FDC033;}
	.st3{fill:#FC9E30;}
	.st4{fill:#FC812E;}
	.st5{fill:#F1F2F3;}
	.st6{fill:#304147;}
	.st7{fill:#5C6C75;}
	.st8{fill:#E2E4E4;}
	.st9{fill:#69787F;}
	.st10{fill:#FC9C2B;}
	.st11{fill:#657176;}
	.st12{fill:#717D81;}
	.st13{fill:#E3E4E5;}
	.st14{fill:#ACB3B5;}
	.st15{fill:#324349;}
	.st16{fill:#93AF75;}
	.st17{fill:#465860;}
	.st18{fill:#304249;}
	.st19{fill:#FCC033;}
	.st20{fill:#3C4647;}
	.st21{fill:#F47E2F;}
	.st22{fill:#7B754E;}
	.st23{fill:#80784B;}
	.st24{fill:#CEA538;}
	.st25{fill:#C09C3C;}
	.st26{fill:#BA9A3E;}
	.st27{fill:#C19D3D;}
	.st28{fill:#BE9C3D;}
	.st29{fill:#5B6B75;}
	.st30{fill:#45575F;}
	.st31{fill:#F89D30;}
	.st32{fill:#FB9E30;}
	.st33{fill:#FA9D30;}
	.st34{fill:#FDFDFD;}
	.st35{fill:#FA802E;}
	.st36{fill:#34454B;}
	.st37{fill:#2E4046;}
	.st38{fill:#364548;}
	.st39{fill:#324348;}
	.st40{fill:#5E513F;}
	.st41{fill:#344448;}
	.st42{fill:#818B8F;}
	.st43{fill:#3A4647;}
	.st44{fill:#3C4747;}
	.st45{fill:#374548;}
	.st46{fill:#99A2A5;}
	.st47{fill:#334348;}
	.st48{fill:#5B686D;}
	.st49{fill:#899396;}
	.st50{fill:#FCFCFC;}
	.st51{fill:#3B4747;}
	.st52{fill:#7D878B;}
	.st53{fill:#838D92;}
	.st54{fill:#464C45;}
	.st55{fill:#768286;}
	.st56{fill:#808A8D;}
	.st57{fill:#747F83;}
	.st58{fill:#454946;}
	.st59{fill:#697478;}
	.st60{fill:#1E394C;}
	.st61{fill:#546267;}
	.st62{fill:#7A8589;}
	.st63{fill:#6E7A7E;}
	.st64{fill:#253D4B;}
	.st65{fill:#293F4A;}
	.st66{fill:#2A3F4A;}
	.st67{fill:#233C4B;}
	.st68{fill:#1D394B;}
	.st69{fill:#203B4B;}
	.st70{fill:#1F3A4B;}
	.st71{fill:#1E3A4B;}
	.st72{fill:#1E3A4C;}
	.st73{fill:#203D49;}
	.st74{fill:#1C394C;}
	.st75{fill:#69767A;}
	.st76{fill:#6C787C;}
	.st77{fill:#727D82;}
	.st78{fill:#2B3D43;}
	.st79{fill:#FBFCFC;}
	.st80{fill:#314248;}
	.st81{fill:#D2AA3F;}
	.st82{fill:#848260;}
	.st83{fill:#C0A047;}
	.st84{fill:#B49A4B;}
	.st85{fill:#FA9E2F;}
	.st86{fill:#45575E;}
	.st87{fill:#FC812D;}
	.st88{fill:#445358;}
	.st89{fill:#FA9E30;}
	.st90{fill:#FBFBFB;}
	.st91{fill:#F88130;}
	.st92{fill:#EBEDEE;}
	.st93{fill:#526166;}
	.st94{fill:#5D6A6F;}
</style>
<g class="st0">
	<path class="st1" d="M1066,49.44c-0.13,0.08-0.17,0.19-0.12,0.33c-0.76,2.28-2.56,4.2-2.34,6.82c0.27,5.4-0.07,10.81,0.15,16.2
		c0.31,7.49,0.28,15,0.21,22.47c-0.12,13.18-0.22,26.35-0.2,39.53c0.01,6.65-0.03,13.3-0.01,19.95c0.06,19.75-0.25,39.51,0.08,59.26
		c0.11,6.73-0.19,13.44-0.14,20.17c0.15,19.69-0.14,39.39,0.12,59.08c0.08,6.47,0,12.96,0.14,19.44c0.12,5.52-0.06,11.12-0.21,16.68
		c-0.06,2.48-0.11,4.96,0.42,7.42c0.31,1.43,0.07,2.91-0.73,4.22c-1.16,1.32-1.26,2.9-1.26,4.56c0.02,14.45,0.02,28.89,0,43.34
		c0,1.27,0.19,2.57-0.36,3.79c-0.49,1.78-0.01,3.61-0.26,5.41c0.05,0.32,0.15,0.62,0.29,0.91c0.95,4.07,0.18,8.19,0.31,12.28
		c0.08,2.64-0.25,5.31,1.19,7.76c0.48,0.81,0.32,1.84,0.32,2.78c0,94.84,0,189.68,0.02,284.53c0,1.43-0.5,2.84-0.3,3.7
		c-0.12-1.16,0.3-2.89,0.3-4.63c-0.03-94.16-0.03-188.31-0.04-282.47c0-1.52,0.28-3.11-0.69-4.49c-0.29-0.21-0.61-0.28-0.96-0.19
		c-0.27,0.24-0.41,0.53-0.44,0.89c-0.12,1.71-0.01,3.43-0.01,5.14c-0.01,93.83,0,187.66-0.02,281.49c0,5.25-0.51,10.59,4.34,14.42
		c-1.34,0.78-2.39,0.52-3.39,0.52c-28.99,0.02-57.98,0.01-86.97,0.03c-1.59,0-3.28-0.36-4.72,0.74c-0.11,0.51,0.14,0.79,0.61,0.95
		c0.67,0.21,1.36,0.16,2.04,0.16c32.03-0.01,64.05,0.03,96.08-0.01c1.81-0.37,3.64-0.27,5.47-0.34c0.44-0.02,0.86-0.13,1.25-0.32
		c0.63-0.37,0.92-0.97,1.12-1.65c2.9-9.59,6.79-18.83,10.17-28.26c6.39-17.81,13.1-35.49,19.55-53.27c0.39-1.07,0.78-2.1,0.2-3.21
		c-0.34-0.7-0.88-1.25-1.38-1.84c-3.48-4.07-3.37-8.21,0.33-12.11c0.35-0.37,0.73-0.72,1.06-1.11c1.19-1.3,2.71-1.75,4.41-1.69
		c2.01,0.07,3.19-0.93,3.82-2.78c4.59-13.38,9.69-26.58,14.53-39.87c4.96-13.61,10-27.19,15.02-40.77c3.45-9.32,6.94-18.64,10.28-28
		c3.46-9.69,7.04-19.33,10.62-28.97c0.53-1.43,0.95-2.66-1.01-3.23c-4.17-1.06-7.72-2.8-8.55-7.65c-1-5.83,4.85-11.01,10.45-9.21
		c1.22,0.39,2.38,0.94,3.6,1.35c1.97,0.59,2.55-0.8,3.12-2.2c2.29-5.63,4.18-11.41,6.28-17.11c8.63-23.37,17.28-46.72,25.69-70.17
		c1.09-3.04,2.84-5.87,3.11-9.19c-0.55-1.99-0.17-3.86,0.77-5.65c0.75-1.57,1.92-2.86,2.94-4.25c0.51-0.69,1.04-1.35,1.33-2.19
		c9.6-27.6,20.02-54.89,30.04-82.34c7.08-19.4,14.19-38.79,21.37-58.16c0.63-1.7,0.92-3.31-0.31-4.85c-2.31-2.9-4.09-5.93-2.32-9.8
		c0.54-1.69,1.78-2.87,2.94-4.11c1.5-1.06,3.11-1.74,5-1.69c1.49,0.04,2.6-0.48,3.11-2.09c2.7-8.55,6.11-16.85,9.13-25.29
		c3.16-9.06,6.55-18.03,9.88-27.03c3.12-8.44,6.12-16.92,9.27-25.34c4.76-12.76,9.11-25.68,14.24-38.29
		c2.03-4.99,4.01-9.83,3.25-15.34c-0.99-4.49-3.61-7.53-8.01-8.99c-1.35-0.28-2.72-0.34-4.1-0.34
		c-77.26,0.01-154.53,0.01-231.79-0.02C1071.51,45.25,1068.74,47.22,1066,49.44z"/>
	<path class="st1" d="M970.77,721.6c32.29,0,64.59,0,97.46,0c-2.14-2.38-4.28-3.9-5.22-6.53c-0.49-1.36-0.67-2.61-0.67-3.95
		c-0.01-96.32,0-192.65-0.03-288.97c0-1.06,0.43-2.24-0.48-3.19c-0.92-0.84-2.07-0.69-3.17-0.71c-5.13-0.09-10.25,0.02-15.38-0.01
		c-1.09-0.01-2.27,0.19-3.02-0.94c-0.17-0.23-0.38-0.41-0.63-0.54c-0.63-0.1-0.99,0.37-1.43,0.67c-0.33,0.23-0.67,0.45-1.04,0.62
		c-3.16,0.28-6.31,0.51-9.43-0.21c-1.57-0.37-2.99,0.53-4.56,0.44c-2.98-0.17-5.99,0.21-8.96-0.37c-4.64,0.67-9.3,0.19-13.95,0.33
		c-3.19-0.05-6.39,0.17-9.58-0.12c-0.38-0.16-0.75-0.34-1.17-0.4c-0.56-0.01-1.05,0.2-1.54,0.43c-0.37,0.16-0.73,0.35-1.11,0.51
		c-3.14,0.17-6.27,0.23-9.41-0.06c-2.17-1.1-4.5-0.88-6.8-0.85c-2.82,0.03-5.64-0.17-8.46,0.12c-3.5,0.73-7.03,0.39-10.55,0.22
		c-0.28-0.1-0.56-0.16-0.85-0.2c-3.27,0.49-6.57,0.36-9.86,0.38c-1.03,0.01-2.03-0.07-2.97-0.53c-0.61-0.15-1.18-0.01-1.75,0.18
		c-3.36,0.6-6.74,0.47-10.1,0.09c-0.93-0.11-1.84-0.25-2.77-0.05c-3.31,0.55-6.64,0.39-9.95,0.09c-0.76-0.07-1.51-0.25-2.29-0.13
		c-4.03,0.63-8.06,0.46-12.09-0.07c-0.29,0-0.59,0.03-0.87,0.09c-3.91,0.48-7.82,0.68-11.71-0.17c-0.28-0.05-0.55-0.01-0.81,0.09
		c-0.46,0.27-0.93,0.54-1.43,0.74c-2.68,0.39-5.38,0.14-8.07,0.15c-1.37-0.38-2.62-1.54-4.19-0.67c-3.41,0.26-6.81,0.55-10.19-0.24
		c-0.87-0.2-1.7-0.12-2.53,0.13c-0.99,0.39-2.02,0.33-3.04,0.28c-6.21-0.26-12.42,0.04-18.62,0.01c-0.72,0.03-1.44-0.13-2.17-0.06
		c-0.43,0.07-0.82,0.25-1.22,0.41c-3.7,0.15-7.41,0.6-11.09-0.28c-1.56-0.81-3.15,0.02-4.73-0.04c-2.77-0.12-5.55,0.19-8.29-0.46
		c-4.72,0.76-9.44,0.47-14.16,0.09c-3.39,0.63-6.8,0.41-10.21,0.16c-0.62-0.29-0.85-1.04-1.49-1.31c-0.29-0.01-0.54,0.09-0.74,0.3
		c-0.63,0.97-1.56,1.25-2.66,1.21c-2.99-0.11-6,0.27-8.98-0.27c-0.87-0.16-1.7,0.15-2.55,0.22c-3.3-0.04-6.6-0.11-9.88-0.13
		c-3.1-0.03-5.97,1.53-8.51,3.44c-0.46,0.37-0.92,0.74-1.38,1.1c-0.7,0.71-0.84,1.69-1.19,2.57c-2.42,10.08-0.96,20.3-1.07,30.46
		c-0.09,8.74,0.17,17.48-0.05,26.22c-0.22,8.83-0.19,17.67-0.01,26.5c0.18,8.83,0.18,17.66,0,26.49c-0.18,8.83-0.18,17.67-0.01,26.5
		c0.17,8.83,0.19,17.66-0.01,26.49c-0.17,7.29-0.1,14.58-0.01,21.87c0.12,10.37,0.22,20.73,0.02,31.1
		c-0.18,9.26-0.13,18.52,0.07,27.78c0.18,8.57,0.22,17.15-0.08,25.72c-0.2,5.74-0.14,11.49,0,17.24c0.05,2.05,0.66,4.04,2.11,5.64
		c3.5,3.34,7.64,4.24,12.44,4.18c17.23-0.22,34.46-0.09,51.69-0.08c3.17,0,6.35-0.51,9.46-0.39c4.96,0.19,9.91,0.3,14.87,0.41
		c3.32,0.07,6.61-0.81,9.95-0.09c1,0.21,2.06-0.06,2.78-0.97c1.11-2.37,0.43-4.91,0.46-7.33c0.13-13.76,0.16-27.53,0.03-41.29
		c-0.03-2.87,0.26-5.76,0.06-7.75c-0.22,9.31,0.13,19.51-0.1,29.71c-0.13,5.88,0.12,11.78,0.1,17.67c-0.01,2.89,0.02,5.79-0.23,8.68
		c-0.05,0.62,0.02,1.2,0.56,1.62c1.65-0.51,1.12-1.94,1.13-3.01c0.07-7.01,0.03-14.03,0.04-21.04c0-11.12,0-22.24,0.01-33.36
		c0-1.11-0.14-2.23,0.22-3.3c1.13-2.88,3.84-3.47,6.35-4.29c1.13-0.37,2.35-0.5,3.37-1.21c1.3-1.13,2.87-0.95,4.4-0.95
		c23.63-0.01,47.26,0,70.89,0c6.17,0,12.34,0.03,18.51-0.02c1.62-0.01,3.04,0.3,4.28,1.35c1.12,0.7,2.44,0.75,3.66,1.13
		c4.09,1.27,5.23,2.79,5.23,7.07c0.01,17.64,0,35.27,0.01,52.91c0,1.28-0.13,2.57,0.23,3.83
		C969.9,721.15,970.24,721.48,970.77,721.6z"/>
	<path class="st2" d="M852.21,722.98c12.07,0.04,24.14,0.1,36.22,0.11c26.12,0.01,52.24,0,78.36-0.01c1.11,0,2.22-0.06,3.34-0.09
		c0.2-0.23,0.24-0.48,0.14-0.76c-0.78-1.19-0.32-2.49-0.32-3.74c-0.01-16.62,0-33.25-0.01-49.87c0-1.53-0.21-3.04-0.05-4.59
		c0.25-2.41-0.94-3.18-3.15-2.09c-3.61,1.78-7.14,3.73-10.71,5.58c-12.31,6.39-24.53,12.96-36.8,19.45
		c-14.92,7.89-29.84,15.75-44.74,23.67c-5.67,3.02-11.39,5.94-16.95,9.16c-1.67,0.96-3.72,0.71-5.23,1.98
		C852.04,722.17,852,722.56,852.21,722.98z"/>
	<path class="st3" d="M1062.29,341.87c-5.01-3.84-9.71-8.05-14.43-12.24c-1.4-1.25-2.88-2.42-4.27-3.69
		c-1.61-1.47-3.1-1.44-4.74-0.01c-3.74,3.26-7.52,6.45-11.31,9.65c-1.21,1.02-2.4,2.31-4.16,1.93c-0.62-0.13,0.1-4.79,0.86-5.71
		c1.42-1.72,1.43-4.07,0.03-5.6c-0.81,0.65-0.55,1.54-0.55,2.38c0,0.68,0.12,1.48-0.46,1.94c-2.08,1.64-1.8,3.91-1.8,6.11
		c-0.21-2.17-0.16-4.16,1.53-6c1.54-1.68,0.7-3.33-1.64-3.41c-5.05-0.17-10.11-0.14-15.16-0.01c-2.12,0.05-2.8,0.91-1.91,2.78
		c1.1,2.31,1,4.64,0.89,7c-0.19,4.19,0.63,8.35,0.12,12.56c-0.27,2.24,0.66,4.39,2.32,6.06c12.15,12.21,24.29,24.42,36.55,36.51
		c0.12,0.12,0.28,0.19,0.43,0.29c1.79,0.79,3.68,0.52,5.52,0.46c3.96-0.13,7.95,0.52,11.89-0.39c0.69-0.47,0.57-1.19,0.57-1.86
		c0-15.85,0-31.7,0-47.55C1062.58,342.65,1062.61,342.22,1062.29,341.87z"/>
	<path class="st2" d="M1166.9,722.9c1.45,0.06,2.89,0.18,4.34,0.18c13.49,0.02,26.98,0.02,40.48,0.01c1.02,0,2.04-0.1,3.06-0.16
		c0.66-0.69,0.63-1.56,0.63-2.41c-0.02-16.1,0.09-32.2-0.05-48.29c-0.75-2.42-0.49-4.91-0.56-7.39c-0.02-0.84,0.15-1.96-0.71-2.32
		c-1.04-0.44-1.7,0.57-2.26,1.3c-4.63,5.95-9.15,11.98-13.73,17.97c-8.79,11.5-17.68,22.92-26.35,34.51
		c-1.48,1.98-3.12,3.86-4.93,5.57C1166.58,722.24,1166.54,722.59,1166.9,722.9z"/>
	<path class="st4" d="M1061.84,392.21c-4.85-0.01-9.71-0.02-14.56-0.02c-1.02,0-2.05,0.05-2.97-0.53c-0.6-0.35-1.1-0.82-1.58-1.3
		c-11.92-11.96-23.92-23.83-35.77-35.85c-0.48-0.48-0.86-1.24-1.64-0.91c-0.69,0.29-0.28,1.07-0.36,1.63
		c-0.05,0.33,0,0.68-0.32,0.91c-2.7,2.36-5.44,4.69-8.1,7.09c-1.12,1.02-2.44,2.11-1.77,3.91c0.66,1.79,2.27,1.8,3.87,1.81
		c5.96,0.03,5.97,0.05,6,5.95c0.03,4.96,0.02,9.93,0.04,14.89c0,0.94,0.03,1.88-0.37,2.77c0.71,1.02,1.81,0.86,2.81,0.86
		c17.33,0.02,34.65,0.03,51.98-0.01C1060.12,393.4,1061.43,393.74,1061.84,392.21z"/>
	<path class="st5" d="M1311.95,46.32c3.58,1.59,6.06,4.1,6.77,8.09c0.94,3.07,0.01,6.12-0.16,9.16c-0.08,1.54-0.24,3.07-0.24,4.61
		c0,117.59-0.45,235.19,0.14,352.78c0.48,95.2,0.04,190.4,0.39,285.6c0.01,2.94-0.23,5.81-1.12,8.63c-0.45,1.41-0.99,2.73-2.06,3.78
		c-0.68,0.88-1.5,1.57-2.55,2.02c-0.87,0.37-1.71,0.87-1.29,2.09c4.06-0.89,6.21-3.83,7.8-7.34c1.42-3.14,1.08-6.49,1.08-9.79
		c0-100.19,0-200.38,0-300.57c0-52.63,0-105.26,0-157.89c0-53.21,0-106.42,0-159.63c0-7.34-0.01-14.68,0-22.01
		c0.01-2.79-0.37-5.54-0.09-8.37c0.41-4.05-4.88-11.91-9.86-12.61C1310.34,46.01,1311.49,45.89,1311.95,46.32z"/>
	<path class="st6" d="M784.02,416.89l0.23,0c1.09-0.78,0.83-1.97,0.85-3.04c0.09-4.67-0.1-9.34,0.12-14c0.11-0.25,0.2-0.51,0.3-0.77
		c0.17-0.36,0.4-0.68,0.76-0.88c2.93-0.36,5.86-0.11,8.79-0.12c4.48,0.39,8.97,0.48,13.46,0.37c4.99-0.13,10,0.22,14.98-0.37
		c3.28,0.07,6.58-0.46,9.83,0.34c0.24,0.11,0.49,0.2,0.73,0.3c0.88,0.35,1.76,0.51,2.61-0.08c0.35-0.17,0.69-0.37,1.06-0.51
		c2.94-0.28,5.9,0.05,8.84-0.18c0.3-0.03,0.58-0.1,0.86-0.19c3.91-1.85,7.93-1.58,11.97-0.62c0.77,0.18,1.51,0.24,2.27,0.03
		c3.46-0.97,6.93-0.23,10.4-0.25c4.97-0.04,9.93-0.07,14.9,0.01c3.61,0.05,7.25-0.64,10.88,0.1c0.8,0.16,1.51-0.03,2.27-0.14
		c3.4-0.5,6.82-0.62,10.21,0.1c0.86,0.18,1.68,0.34,2.52,0.02c1.32-0.49,2.7-0.55,4.06-0.44c5.1,0.39,10.21-0.07,15.3,0.03
		c7.73,0.16,15.45-0.13,23.18-0.02c4.67,0.07,9.34,0.01,13.99,0.12c4.75,0.11,9.49-0.4,14.21-0.1c4.95,0.31,9.87-0.26,14.81-0.04
		c1.92,0.08,3.87,0.98,5.71-0.33c0.52-0.27,0.99-0.63,1.59-0.78c0.61-0.15,1.52-0.19,1.45-1.06c-0.06-0.74-0.83-1-1.53-1.11
		c-0.5-0.08-1.01-0.05-1.53-0.06c-83.44,0-166.87,0-250.31,0.02c-2.09,0-4.35-0.43-5.97,1.53c-0.44,0.98,0.18,1.75,0.53,2.57
		c1.1,0.81,2.45,0.7,3.69,1c2.6,0.02,5.21-0.09,7.81,0.24c2.81-0.07,5.68-0.33,8.43-0.05c4.06,0.41,7.96-0.97,11.99-0.5
		c2.63,0.31,2.84,0.27,2.86,3.03c0.03,4.27-0.02,8.53,0.03,12.8C783.19,414.91,782.92,416.11,784.02,416.89z"/>
	<path class="st7" d="M1166.9,722.9c0.07-0.28,0.14-0.55,0.21-0.83c0.73-1.36,0.53-2.84,0.53-4.28c0.01-17.47,0.01-34.94,0-52.41
		c0-2.66-0.15-5.32,1.21-7.77c0.25-0.44,0.27-0.99-0.04-1.48c-2.06-0.35-2.71,1.07-3.13,2.62c-0.34,1.25-0.21,2.55-0.21,3.84
		c0,17.65,0,35.3,0,52.95c0,0.77-0.05,1.55,0,2.31c0.14,2.03-0.66,3.08-2.81,2.92c-0.85-0.06-1.71,0-2.57,0
		c-26.39,0-52.78,0-79.17,0c-1.62,0-3.27-0.13-4.74,0.81c-0.33,0.01-0.66,0.02-0.99,0.04c-1.68,0.69-3.5-0.15-5.18,0.48
		c-32.28,0.01-64.57,0.02-96.85,0.01c-0.81,0-1.74,0.31-2.4-0.5c-0.16-0.15-0.33-0.3-0.49-0.44c-0.53,0.33-0.27,0.86-0.33,1.3
		c0.06,0.18,0.12,0.36,0.17,0.54c11.75,0.04,23.49,0.12,35.24,0.12c52.74-0.02,105.47-0.06,158.21-0.1
		C1164.67,723.01,1165.79,722.94,1166.9,722.9z"/>
	<path class="st8" d="M748.88,424.62c0.22-0.67,0.43-1.34,0.65-2.01c-1.04,0.16-1.36,1.08-1.58,1.84c-0.89,3.05-2.4,5.89-2.22,9.3
		c0.27,4.94-0.33,9.95,0.15,14.85c1.07,10.86,0.86,21.72,0.91,32.59c-0.52,0.85-0.49,1.8-0.49,2.75c0,7.46,0,14.92,0,22.38
		c0,0.94-0.03,1.89,0.49,2.75c0,8.38,0,16.76,0,25.14c-0.52,0.85-0.49,1.8-0.49,2.75c0,7.46,0,14.92,0,22.38
		c0,0.94-0.03,1.89,0.49,2.75c0,1.63-0.05,3.26,0.01,4.88c0.53,14.93-2.24,29.85-0.82,44.72c0.85,8.96,1.45,17.95,0.54,26.74
		c-0.96,9.23-1.21,18.48-0.43,27.53c0.8,9.14,0.18,18.21,0.7,27.29c-0.4,0.69-0.48,1.45-0.48,2.23c-0.01,5.23-0.01,10.47,0,15.7
		c0,0.78,0.08,1.54,0.48,2.24c0.33,3.17,2.05,5.56,4.36,7.56c0.61,0.53,1.3,1.51,2.36,0.61c0.06-0.11,0.12-0.22,0.19-0.33
		c-0.08-0.25-0.22-0.45-0.41-0.62c-1.22-0.72-2.35-1.55-3.17-2.75c-0.2-0.23-0.41-0.44-0.64-0.63c-1.33-1.88-1.9-3.96-1.9-6.25
		c0.01-32.34,0.01-64.67,0.01-97.01c0-44.85,0-89.7,0-134.56c0-15.69,0.05-31.38-0.05-47.07
		C747.52,429.67,748.32,427.19,748.88,424.62z"/>
	<path class="st9" d="M1311.84,723.08c0.53-1.97,3.01-1.41,3.85-2.97c-0.41-0.4-0.95-0.51-1.41-0.3c-3.47,1.59-7.16,0.97-10.77,1.07
		c-3.88,0.01-7.76,0-11.64-0.01c-4.45,0.02-8.9,0.01-13.34,0c-4.79,0.02-9.59,0.01-14.38,0c-3.96,0.02-7.92,0.01-11.87,0
		c-4.78,0.02-9.57,0.01-14.35,0c-4.38,0.02-8.75,0-13.13,0.01c-1.21,0.01-2.42,0.02-3.63,0.01c-1.53-0.03-3.07,0.12-4.59-0.2
		c-0.9-0.19-0.43-0.62-0.26-1.03c0.23-0.93,0.24-1.88,0.24-2.82c0.01-17.91,0.02-35.81-0.02-53.72c0-1.76,0.22-3.66-1.53-4.91
		c-0.96,0.34-0.98,1.23-0.86,1.93c0.6,3.65,0.01,7.34,0.5,10.99c0.03,15.9,0.07,31.8,0.1,47.7c0,1.37,0.03,2.74,0.04,4.1
		c18.66,0.04,37.32,0.08,55.98,0.11C1284.45,723.07,1298.14,723.07,1311.84,723.08z"/>
	<path class="st10" d="M1004.64,356.14c0.89-0.46,0.35-1.42,0.75-2.12c1.06,0.07,1.48,1.01,2.1,1.62
		c11.41,11.37,22.79,22.77,34.2,34.15c0.76,0.76,1.34,1.84,2.64,1.88c-0.62-0.7-1.2-1.44-1.86-2.1
		c-11.07-11.09-22.13-22.18-33.25-33.22c-2.52-2.51-3.78-5.16-3.07-8.88c0.65-3.44-0.66-6.93-0.45-10.45
		c0.14-2.47,0.76-5.02-0.9-7.38c-0.59-0.83-0.43-1.86,1.26-1.82c5.05,0.11,10.1,0.02,15.15,0.05c2.25,0.02,2.67,0.73,1.23,2.57
		c-1.46,1.88-2.08,3.83-1.79,6.15c0.1,0.83,0.02,1.7,0.94,2.22c1.04-0.9,0.52-2.09,0.59-3.13c0.12-1.73-0.26-3.38,1.57-4.79
		c1.28-0.99,0.29-3.09,0.53-4.67c-3.89-0.63-7.82-0.13-11.72-0.28c-2.05-0.08-4.1,0-6.15,0.02c-1.5,0.02-3.23-0.42-3.96,1.49
		c-0.67,1.74,0.07,3.18,1.32,4.38c0.59,0.57,0.89,1.18,0.89,2.02C1004.62,341.28,1004.63,348.71,1004.64,356.14z"/>
	<path class="st11" d="M852.21,722.98c0.05-0.29,0.09-0.59,0.14-0.88c0.76-1.12,0.83-2.39,0.83-3.69c0-18.3,0.01-36.6-0.02-54.9
		c0-1.25,0.19-2.6-0.91-3.6c-0.79,0.89-0.43,1.97-0.43,2.96c-0.02,18.61-0.01,37.21-0.04,55.82c0,0.98,0.41,2.07-0.47,2.93
		c-0.16-0.04-0.33-0.07-0.49-0.11c-1.19-0.19-2.4-0.11-3.59-0.11c-28.63-0.01-57.26,0-85.88-0.01c-1.37,0-2.74,0.06-4.11-0.1
		c-0.31-0.09-0.63-0.14-0.95-0.17c-0.78,0.02-1.61-0.22-2.24,0.47c0.15,0.19,0.3,0.38,0.45,0.57c0.47,0.44,1.16,0.49,1.65,0.9
		c31.6,0.02,63.2,0.04,94.8,0.05C851.36,723.12,851.78,723.03,852.21,722.98z"/>
	<path class="st12" d="M751.91,397.88c-1.18-0.18-2.36-0.36-3.54-0.54c1.5,1.92,3.68,1.32,5.6,1.39c3.63,0.14,3.67,0.04,3.72,3.7
		c0.07,4.7,0.01,9.39,0.13,14.09c0.03,1.24-0.47,1.59-1.52,1.9c-2.03,0.59-4.11,1.18-5.39,3.1c1.61-0.33,2.89-1.39,4.37-2.03
		c3.61-1.57,7.24-0.01,10.83-0.47c1.1-0.14,2.23-0.06,3.34-0.08c0.2-0.23,0.26-0.5,0.17-0.79c-0.58-0.87-1.46-0.76-2.31-0.66
		c-0.94,0.1-1.87,0.22-2.81,0.22c-3.83,0.03-3.89-0.33-4.17-4.15c-0.28-3.86,0.26-7.67,0.03-11.5c-0.11-1.83,0.59-2.49,2.33-2.43
		c1.11,0.04,2.24,0.12,3.32-0.13c0.62-0.15,1.71-0.03,1.27-1.3c-2.41-0.14-4.82-0.03-7.23-0.06
		C757.34,397.99,754.61,398.29,751.91,397.88z"/>
	<path class="st13" d="M746.79,509.07c0-9.29,0-18.58,0-27.87c-1.13,0.6-1,1.66-1,2.69c0,7.5,0,15,0,22.5
		C745.8,507.41,745.67,508.47,746.79,509.07z"/>
	<path class="st13" d="M746.79,562.09c0-9.29,0-18.58,0-27.87c-1.13,0.6-1,1.66-1,2.69c0,7.5,0,15,0,22.5
		C745.8,560.42,745.67,561.49,746.79,562.09z"/>
	<path class="st13" d="M746.79,713.42c0-6.72,0-13.44,0-20.17c-1,0.54-1,1.47-1,2.43c0.01,5.1,0.01,10.2,0,15.31
		C745.79,711.95,745.8,712.88,746.79,713.42z"/>
	<path class="st14" d="M756.14,723.07c-0.21-0.91-0.85-1.05-1.65-0.9C754.6,723.28,755.35,723.2,756.14,723.07z"/>
	<path class="st15" d="M754.04,721.6c0.68,0,1.36,0,2.04,0.01c-0.7-1.28-1.63-1.11-2.64-0.43c0.01,0.14,0.03,0.29,0.07,0.43
		C753.69,721.6,753.86,721.6,754.04,721.6z"/>
	<path class="st16" d="M1214.59,658.34c1.19,1.11,1.12,2.58,1.12,4.02c0,19.4,0,38.81-0.01,58.21c3.72,0.88,7.51,0.45,11.25,0.47
		c20.84,0.09,41.68,0.07,62.52,0.04c6.51-0.01,13.03,0.03,19.54,0.01c4.98-0.02,7.74-2.42,8.61-7.27c0.61-3.39,0.83-6.79,0.82-10.24
		c-0.04-16.47-0.02-32.93-0.02-49.4c0-35.42,0-70.83,0-106.25c0-36.7,0.05-73.41-0.03-110.11c-0.02-10.28-0.57-20.56-0.67-30.84
		c-0.02-2.4,0.2-4.79,0.19-7.2c-0.03-31.13,0.02-62.25-0.04-93.38c-0.01-7.72,0.15-15.43,0.01-23.15
		c-0.21-11.31,0.05-22.62,0.03-33.93c-0.06-33.27,0.05-66.53-0.06-99.8c-0.03-9.33,0.12-18.66,0.01-27.99
		c-0.15-12.68,0.07-25.35,0.04-38.02c-0.01-4.1-0.93-8.19-0.1-12.3c0.05-0.24,0-0.51-0.06-0.77c-0.14-0.67-0.23-1.47-1.05-1.59
		c-0.91-0.14-1.12,0.74-1.29,1.32c-0.92,3.13-2.18,6.13-3.3,9.18c-5.63,15.31-11.2,30.65-16.84,45.96
		c-4.11,11.14-8.2,22.29-12.23,33.46c-0.23,0.65-0.61,1.22-0.95,1.81c-2.32,4.67-3.87,9.64-5.55,14.54
		c-1.27,3.7-3.34,7.12-3.83,11.1c-0.15,1.24-1.34,1.16-2.27,1.11c-2.25-0.12-4.18,0.55-5.77,2.16c0.32,0.28,0.69,0.35,1.1,0.32
		c2.91-1.12,5.75-2.12,8.8-0.13c3.98,2.61,5.31,7.04,3.1,11.15c-2.09,3.9-6.69,5.39-10.85,3.53c-0.55-0.25-1.04-0.61-1.61-0.81
		c-0.4-0.1-0.78-0.06-1.09,0.24c1.09,1.24,1.02,2.53,0.46,4.03c-5.06,13.53-10.08,27.07-15.08,40.62
		c-6.24,16.9-12.45,33.82-18.67,50.73c-3.56,9.68-7.27,19.31-10.62,29.06c-2.35,6.85-5.4,13.45-7.17,20.5
		c-0.22,0.86-0.91,1.6-1.39,2.39c0.34,0.24,0.72,0.26,1.12,0.18c3.51-1.64,6.87-1.86,10.04,0.87c3.93,3.39,4.23,8.04,0.68,11.95
		c-3.16,3.48-8.49,3.54-11.87,0.15c-0.79-0.79-1.46-1.68-2.11-2.58c-0.43-0.43-0.71-1.13-1.53-0.89c0.1,2.23-1.12,4.1-1.83,6.08
		c-3.21,8.91-6.59,17.76-9.88,26.65c-6.31,17.05-12.61,34.1-18.9,51.15c-1.62,4.4-3.29,8.8-4.75,13.26
		c-0.45,1.39-1.11,1.49-2.23,1.2c-0.26,0.99,0.43,1.64,0.94,2.28c3.26,4.08,1.22,10.88-3.89,12.8c-0.94,0.35-2.03,0.48-2.69,1.39
		c0.45,0.53,1.42,0.51,0.92,1.84c-7.06,18.97-13.99,37.99-21,56.98c-6.54,17.71-13.15,35.39-19.68,53.11
		c-3.43,9.3-6.79,18.62-10.05,27.98c-0.67,1.92-1.54,2.86-3.65,2.67c-1.86-0.17-3.53,0.42-4.66,2.07c1.04,0.67,2.06,0.14,2.92-0.28
		c3.14-1.54,7.33,0.83,9.13,3.47c1.8,2.65,1.57,7.14-0.5,9.63c-2.46,2.96-5.63,3.85-9.39,2.67c-0.71-0.22-1.42-0.69-2.18-0.1
		c0.98,2.19-0.59,3.95-1.23,5.72c-5.74,15.8-11.7,31.52-17.55,47.28c-3.49,9.42-6.9,18.88-10.31,28.33
		c-0.55,1.51-0.91,3.09-1.36,4.63c29.24,0.01,58.48-0.01,87.72,0.08c2.3,0.01,2.42-1.02,2.42-2.79c-0.04-19.55-0.01-39.1-0.04-58.65
		c0-2,0.41-3.57,2.68-3.95c10.63-1.53,21.33-0.5,31.99-0.79C1205.73,655.35,1210.56,654.96,1214.59,658.34z"/>
	<path class="st17" d="M1062.21,418.39c1.12,0.96,0.61,2.25,0.61,3.38c0.03,96.06,0.02,192.11,0.03,288.17
		c0,0.86-0.03,1.72,0.04,2.57c0.05,0.61,0.3,1.28,1.08,1.09c0.53-0.13,0.87-0.82,0.58-1.24c-1.41-2.08-0.13-4.18-0.13-6.25
		c-0.04-94.68-0.03-189.37-0.04-284.05c0-0.85,0.06-1.79-0.28-2.52c-2.18-4.69-0.94-9.59-1.09-14.41c-0.07-2.28,0.81-4.85-1.2-6.84
		c-2.6-1.21-5.32-0.5-8-0.49c-0.3,0.08-0.56,0.22-0.79,0.42c-0.27,0.42-0.27,0.83-0.01,1.25c0.25,0.15,0.52,0.23,0.81,0.24
		c1.26-0.06,2.53-0.11,3.79-0.1c3.92,0.01,3.92,0.01,3.98,3.85c0.03,4-0.01,8,0.02,12C1061.62,416.47,1061.49,417.52,1062.21,418.39
		z"/>
	<path class="st18" d="M1061.82,393.28c-18.41-0.02-36.82-0.03-55.24-0.04c-0.67,0-1.39-0.13-1.91,0.49c0.75,0,1.48,0.05,2.16,0.77
		c-0.77,0.71-2.5-0.41-2.66,1.29c1.24,0.39,1.41,1.68,2.1,2.53c3.13,0.31,6.26,0.4,9.39,0.28c3.7,0.25,7.39-0.47,11.15,0.67
		c1.36,0.41,3.48-0.75,5.36-0.73c2.12,0.02,4.27,0.25,6.38-0.19c0.66-0.85,0.97,0.24,1.48,0.27c4,0.12,8.03-0.51,12.01,0.4
		c0.47,0.11,0.78-0.25,1.02-0.63l0.02-0.01c2.89-0.72,5.87,0.2,8.75-0.5C1062.7,396.33,1062.5,394.81,1061.82,393.28z"/>
	<path class="st19" d="M1164.78,475.61c6.18-1.13,9.15-4.85,8.73-10.75c-0.17-2.43-1.89-3.9-3.1-5.71c-2.7-1.22-5.24-2.57-8.51-1.44
		c-4.91,1.71-6.54,6.09-6.31,9.2c0.32,4.37,3.48,7.69,7.91,8.55C1163.92,475.54,1164.35,475.56,1164.78,475.61z"/>
	<path class="st19" d="M1111.74,349.49c-4.94,0.01-9.07,4.04-9.15,8.92c-0.08,4.82,4.34,9.16,9.28,9.1c5.07-0.06,8.76-3.9,8.75-9.09
		C1120.59,353.26,1116.84,349.48,1111.74,349.49z"/>
	<path class="st2" d="M1217.54,313.57c5.04,0,8.92-3.86,8.95-8.9c0.02-4.96-3.94-9.09-8.81-9.18c-4.98-0.09-9.19,4.14-9.15,9.17
		C1208.57,309.65,1212.53,313.56,1217.54,313.57z"/>
	<path class="st19" d="M1270.62,151.99c4.85-0.02,8.97-4.21,8.82-9.12c-0.17-5.72-4.33-8.77-9.07-8.94
		c-4.91-0.17-8.94,4.18-8.93,9.09C1261.45,148.22,1265.34,152.02,1270.62,151.99z"/>
	<path class="st19" d="M1106.64,635.62c4.26,2.08,8.21,2.05,11.67-1.64c2.73-2.92,3.18-7.51,1.02-10.92
		c-2.2-3.47-6.37-4.95-10.24-3.63c-0.81,0.28-1.62,0.54-2.43,0.81C1102.02,624.08,1100.66,630.14,1106.64,635.62z"/>
	<path class="st2" d="M1120.61,466.38c0.32-5.15-3.94-8.86-8.81-9.17c-4.76-0.3-9.2,4.35-9.24,9.25c-0.04,4.51,4.59,9.06,9.18,9.04
		C1116.58,475.47,1120.61,471.33,1120.61,466.38z"/>
	<path class="st2" d="M1120.61,143.07c0.27-5.09-3.83-8.87-8.79-9.16c-4.66-0.28-9.2,4.27-9.25,8.91c-0.06,4.93,4.14,9.14,9.15,9.17
		C1116.79,152.02,1120.61,148.19,1120.61,143.07z"/>
	<path class="st2" d="M1226.48,250.77c0.01-5.22-3.6-8.81-8.87-8.83c-5.1-0.02-9.14,3.88-9.07,8.77c0.07,5.2,3.92,9.04,9.11,9.08
		C1222.55,259.84,1226.47,255.84,1226.48,250.77z"/>
	<path class="st19" d="M1120.61,197.01c0.03-5.21-3.67-9.11-8.68-9.15c-5.07-0.05-9.28,3.97-9.37,8.95
		c-0.08,4.77,4.37,9.14,9.27,9.11C1116.6,205.87,1120.59,201.82,1120.61,197.01z"/>
	<path class="st19" d="M1173.53,412.32c-0.08-5.29-3.84-8.92-9.18-8.85c-4.84,0.06-8.96,4.34-8.8,9.14
		c0.15,4.84,4.14,8.74,8.95,8.76C1169.67,421.39,1173.61,417.45,1173.53,412.32z"/>
	<path class="st19" d="M1111.76,241.93c-5.4-0.31-9.05,4.47-9.14,8.78c-0.11,4.84,4.39,9.15,9.23,9.09
		c5.19-0.07,8.83-3.92,8.77-9.31C1120.55,245.46,1116.88,241.9,1111.76,241.93z"/>
	<path class="st19" d="M1164.45,187.82c-4.8,0.01-9.02,4.34-8.9,9.13c0.13,4.97,4.18,8.96,9.09,8.96c4.9,0,8.93-4.08,8.9-9.01
		C1173.51,191.79,1169.53,187.82,1164.45,187.82z"/>
	<path class="st19" d="M1226.48,142.98c0-4.89-4.04-9.01-8.92-9.1c-4.64-0.09-8.97,4.27-9.02,9.08c-0.06,5.11,3.93,9.06,9.12,9.03
		C1222.75,151.95,1226.49,148.14,1226.48,142.98z"/>
	<path class="st19" d="M1120.62,412.25c-0.04-5.14-3.82-8.77-8.98-8.8c-4.96-0.02-8.84,3.91-9.01,8.97
		c-0.16,4.85,4.34,8.96,9.33,8.95C1116.95,421.37,1120.65,417.47,1120.62,412.25z"/>
	<path class="st2" d="M1120.61,304.73c0.02-5.05-3.83-9.14-8.7-9.25c-4.73-0.11-9.23,4.29-9.34,9.12c-0.1,4.67,4.21,8.94,9.07,8.98
		C1116.64,313.62,1120.6,309.71,1120.61,304.73z"/>
	<path class="st19" d="M1111.53,80.22c-4.93,0.1-8.99,4.19-8.97,9.04c0.02,4.61,4.48,8.92,9.21,8.91c5.12-0.01,8.98-4.19,8.84-9.55
		C1120.48,83.71,1116.59,80.12,1111.53,80.22z"/>
	<path class="st2" d="M1224.46,202.77c3.84-4.92,2.22-11.28-2.94-13.99c-3.3-1.73-6.3-1.13-9.18,0.79c-2.81,1.88-4,4.66-3.69,7.97
		c0.17,1.86,0.6,3.73,1.94,5.21C1213.9,207.11,1221.06,207.14,1224.46,202.77z"/>
	<path class="st19" d="M1224.93,94.61c2.48-5.13,1.99-9.47-1.35-12.16c-5.19-4.18-11.25-2.72-14.54,3.5
		c-1.57,3.44-0.55,6.43,1.6,9.22l-0.03,0C1213.86,99.66,1221.93,99.4,1224.93,94.61z"/>
	<path class="st2" d="M1118.97,568.71c-2.46-4.12-8.65-4.44-11.89-2.48c-3.8,2.3-5.32,6.87-3.71,11.15
		c1.55,4.1,5.76,6.23,10.43,5.28C1119.16,581.26,1123.08,574.7,1118.97,568.71z"/>
	<path class="st19" d="M1169.41,350.97c-3.56-2.26-7.98-1.95-10.84,0.77c-3.07,2.92-3.83,7.39-1.88,11.03
		c2.01,3.75,5.91,5.4,10.19,4.32c0.9-0.23,1.87-0.28,2.55-1.06C1174.82,361.89,1174.47,354.62,1169.41,350.97z"/>
	<path class="st2" d="M1277.97,83.89c-0.33-0.35-0.66-0.71-0.99-1.06c-3.51-3.52-7.45-3.52-10.72-1.79
		c-4.02,2.13-5.71,6.18-4.65,10.34c0.17,0.66,0.28,1.34,0.65,1.94c0.72,1.02,1.17,2.27,2.39,2.88l-0.01-0.01
		c3.61,2.82,8.46,2.86,11.5,0.09C1280.09,92.66,1280.76,88.11,1277.97,83.89z"/>
	<path class="st2" d="M1117.4,527.04c0.67-0.7,1.33-1.39,2-2.09c2.33-3.74,1.88-8.01-1.16-11.22c-3.2-3.36-7.02-3.78-11.61-1.27
		c-4.02,3.01-4.89,7.36-3.34,11.23c0.6,1.49,1.67,2.52,2.81,3.55C1109.91,529.71,1113.67,529.59,1117.4,527.04z"/>
	<path class="st2" d="M1158.06,298.51c-3.31,4.05-3.26,9.13,0.11,12.43c3.18,3.12,8.82,4.06,12.78-0.05
		c5.17-5.25,2.22-12.14-2.23-14.18C1164.83,295.34,1161.24,295.72,1158.06,298.51z"/>
	<path class="st20" d="M1053.06,398.38c-3.45-0.74-6.94-0.49-10.43-0.53c-1.02-0.01-2.03-0.05-2.95,0.52
		c-0.71,0.64-0.7,1.52-0.71,2.36c-0.03,4.59-0.03,9.17,0,13.76c0,0.85,0.05,1.71,0.68,2.39c-0.21,1.74,0.67,2.13,2.26,2.11
		c6.64-0.07,13.27-0.03,19.91-0.04c0-0.15,0-0.3,0-0.44c-1.46-1.34-3.25-0.69-4.9-0.77c-2.84-0.14-3.11-0.3-3.13-3.07
		c-0.03-4.1,0.01-8.2-0.02-12.31c-0.01-1.01,0.11-2.07-0.68-2.91C1053.09,399.1,1053.07,398.74,1053.06,398.38z"/>
	<path class="st21" d="M1053.11,399.46c0.02,5.53,0.12,11.05,0.03,16.58c-0.03,1.8,0.55,2.46,2.32,2.4
		c2.12-0.07,4.25,0.04,6.37,0.07c0.11-0.1,0.24-0.14,0.38-0.12c0.35-5.12,0.14-10.23,0.06-15.35c-1.32,0.22-1.08,1.34-1.19,2.19
		c-0.18,1.43,0.05,2.87-0.02,4.3c-0.07,1.87,0.03,3.75-0.03,5.62c-0.08,2.67-2.1,1.89-3.57,2c-1.51,0.11-2.69-0.15-2.65-2.14
		c0.08-4.09,0.09-8.19-0.01-12.28c-0.09-1.2-0.2-2.4-1.22-3.25C1053.43,399.46,1053.27,399.45,1053.11,399.46z"/>
	<path class="st22" d="M1106.66,512.66c2.53-0.97,4.98-2.09,7.83-0.94c4.99,2,7.21,6.73,5.38,11.8c-0.17,0.48-0.32,0.96-0.48,1.44
		c1.63-1.5,2.35-5.77,1.31-8.24c-2.63-6.25-10.6-8.27-14.66-4.09C1106.24,512.84,1106.44,512.87,1106.66,512.66z"/>
	<path class="st23" d="M1106.66,512.66c-0.2-0.01-0.41-0.03-0.61-0.04c-5.5,3.74-4.89,12.02,0.08,14.89
		c0.13-0.11,0.17-0.23,0.14-0.35c-0.03-0.12-0.07-0.19-0.11-0.19C1101.66,522.11,1101.8,518.06,1106.66,512.66z"/>
	<path class="st24" d="M1169.41,350.97c0.63,0.8,1.32,1.55,1.89,2.39c2.56,3.8,2.25,7.73-0.83,11.24c-0.39,0.44-0.69,0.95-1.04,1.42
		c3.29-1.72,4.33-4.54,4.18-8.08C1173.48,354.8,1172.36,352.37,1169.41,350.97z"/>
	<path class="st25" d="M1118.97,568.71c0.93,2.97,2.2,5.81,0.44,9.03c-1.32,2.42-3.49,3.57-5.61,4.92c3.39-0.32,5.38-2.47,6.49-5.39
		C1121.45,574.25,1121.5,571.23,1118.97,568.71z"/>
	<path class="st26" d="M1106.16,526.98c-0.01,0.18-0.02,0.36-0.04,0.53c4.2,2.94,8.1,2.78,11.27-0.47
		C1113.64,528.71,1109.89,529.18,1106.16,526.98z"/>
	<path class="st27" d="M1264.13,203.8c0.32,0.03,0.63,0.07,0.95,0.1c0.1-0.15,0.22-0.36,0.15-0.46c-2.19-2.95-2.68-6.32-2.51-9.86
		c-0.22-0.22-0.45-0.25-0.71-0.06C1259.77,197.55,1261.72,200.72,1264.13,203.8z"/>
	<path class="st20" d="M1061.83,397.86c-2.91,0.27-5.89-0.61-8.75,0.5c2.91-0.02,5.83-0.05,8.74-0.07
		C1061.82,398.15,1061.82,398,1061.83,397.86z"/>
	<path class="st28" d="M1262.01,193.51c0.18,0,0.36,0.01,0.53,0.01c1.32-1.17,2.95-2.1,3.1-4.14c-0.32,0.04-0.64,0.07-0.96,0.11
		C1263.78,190.82,1262.14,191.66,1262.01,193.51z"/>
	<path class="st29" d="M1070.01,722.09c1.73-0.18,3.53,0.55,5.18-0.48C1073.47,721.83,1071.67,721.12,1070.01,722.09z"/>
	<path class="st30" d="M1172.94,84.42c0.35,1.23,0.69,2.46,1.04,3.69"/>
	<path class="st3" d="M852.25,659.91c-0.01,20.05-0.02,40.09-0.02,60.14c0,0.68,0.08,1.37,0.12,2.05c7.05-1.39,12.63-5.89,18.85-9
		c10.08-5.03,19.99-10.39,29.94-15.66c5.9-3.12,11.72-6.38,17.62-9.5c8.83-4.66,17.71-9.23,26.55-13.89
		c7.1-3.74,14.17-7.54,21.26-11.3c0.8-0.43,1.62-1.27,2.56-0.48c0.84,0.7,0.69,1.76,0.3,2.63c-0.57,1.26,0.24,2.34,0.24,3.52
		c-0.01,16.72,0,33.45,0,50.17c0,1.3-1,2.67,0.28,3.87c0.11-0.44,0.22-0.87,0.33-1.31c-0.04-8.98-0.09-17.96-0.11-26.95
		c-0.02-10.18-0.01-20.37,0-30.55c0-4.91-2-7.23-6.95-8c-0.76-0.12-1.51-0.26-2.26-0.38c-1.72-0.88-3.54-1.11-5.46-1.11
		c-26.06,0.03-52.12,0.02-78.18,0.01c-3.42,0-6.84-0.05-10.26-0.01c-1.91,0.02-3.74,0.27-5.47,1.1
		C858.01,655.9,854.56,656.76,852.25,659.91z"/>
	<path class="st31" d="M1031.99,621.13c0-2.05-0.05-4.11,0.01-6.16c0.07-2.12-0.71-3.13-2.99-3.06c-4.02,0.12-8.04,0.1-12.06,0
		c-2.03-0.05-2.87,1.02-2.91,2.76c-0.09,4.27-0.08,8.55,0,12.83c0.03,1.64,0.87,2.66,2.76,2.63c4.19-0.07,8.38-0.07,12.57-0.01
		c2.04,0.03,2.72-0.91,2.65-2.83c-0.08-2.05-0.02-4.1-0.02-6.16C1032,621.13,1032,621.13,1031.99,621.13z"/>
	<path class="st3" d="M910.37,569.33c0,2.06,0.05,4.12-0.01,6.17c-0.05,1.71,0.67,2.59,2.4,2.59c4.37,0,8.75,0.01,13.12-0.02
		c1.78-0.01,2.62-0.94,2.61-2.76c-0.04-4.03-0.05-8.06-0.02-12.09c0.02-2.28-0.99-3.23-3.3-3.17c-3.86,0.1-7.72,0.11-11.57-0.01
		c-2.29-0.07-3.35,0.71-3.22,3.1c0.12,2.05,0.02,4.11,0.02,6.17C910.38,569.33,910.37,569.33,910.37,569.33z"/>
	<path class="st32" d="M867.29,578.08c2.23,0,4.45,0,6.68,0c1.7,0,2.52-0.87,2.53-2.53c0.01-4.19,0.01-8.39-0.02-12.58
		c-0.01-1.92-0.77-2.99-2.94-2.92c-4.1,0.12-8.22,0.09-12.32,0.03c-1.86-0.03-2.69,0.74-2.68,2.56c0.01,4.37-0.01,8.73,0,13.1
		c0,1.56,0.73,2.38,2.35,2.35C863.01,578.05,865.15,578.08,867.29,578.08z"/>
	<path class="st32" d="M815.68,578.07c2.14,0,4.28-0.06,6.41,0.02c1.63,0.06,2.42-0.67,2.43-2.24c0.02-4.45,0.01-8.89,0-13.34
		c0-1.67-0.75-2.46-2.52-2.43c-4.19,0.07-8.38,0.09-12.57-0.01c-1.73-0.04-2.67,0.64-2.71,2.27c-0.09,4.53-0.12,9.06-0.04,13.59
		c0.03,1.47,0.98,2.24,2.59,2.18c2.13-0.08,4.28-0.02,6.41-0.02C815.68,578.08,815.68,578.07,815.68,578.07z"/>
	<path class="st33" d="M919.49,474.13c2.23,0,4.45-0.02,6.68,0c1.61,0.02,2.32-0.69,2.3-2.33c-0.05-4.28-0.05-8.56,0-12.85
		c0.02-1.8-0.95-2.48-2.54-2.49c-4.37-0.03-8.74-0.01-13.1-0.01c-1.65,0-2.49,0.65-2.45,2.47c0.09,4.28,0.1,8.56,0,12.84
		c-0.04,1.84,0.74,2.42,2.44,2.37C915.03,474.08,917.26,474.13,919.49,474.13z"/>
	<path class="st3" d="M867.49,474.12c2.23,0,4.46-0.04,6.69,0.01c1.65,0.04,2.33-0.69,2.32-2.31c-0.03-4.29-0.04-8.57,0-12.86
		c0.01-1.58-0.66-2.48-2.24-2.49c-4.54-0.03-9.09,0-13.63,0.01c-1.5,0-2.12,0.73-2.11,2.24c0.05,4.37,0.05,8.75,0,13.12
		c-0.02,1.65,0.65,2.34,2.29,2.29C863.03,474.08,865.26,474.13,867.49,474.12z"/>
	<path class="st3" d="M919.07,508.42c-2.22,0-4.45,0.01-6.67,0c-1.37-0.01-2.01,0.59-2,2.01c0.03,4.53,0.03,9.07-0.01,13.6
		c-0.01,1.45,0.76,2.02,2.05,2.03c4.62,0.02,9.24,0.04,13.85-0.01c1.4-0.02,2.17-0.82,2.16-2.31c-0.02-4.28-0.03-8.55-0.01-12.83
		c0.01-1.87-0.89-2.58-2.7-2.52c-2.22,0.07-4.45,0.02-6.67,0.02C919.07,508.4,919.07,508.41,919.07,508.42z"/>
	<path class="st3" d="M815.6,474.12c2.23,0,4.45-0.04,6.68,0.01c1.47,0.04,2.26-0.49,2.25-2.05c-0.02-4.54-0.01-9.07,0.02-13.61
		c0.01-1.44-0.76-1.99-2.08-1.99c-4.54,0-9.07,0-13.61,0.01c-1.62,0-2.27,0.91-2.26,2.46c0.02,4.19,0.03,8.39,0,12.58
		c-0.01,1.96,0.85,2.76,2.83,2.64c2.05-0.13,4.11-0.03,6.16-0.03C815.6,474.13,815.6,474.13,815.6,474.12z"/>
	<path class="st3" d="M867.51,508.41c-2.31,0-4.63,0.02-6.94-0.01c-1.4-0.02-2.03,0.63-2.03,2.02c0,4.54,0,9.08-0.03,13.62
		c-0.01,1.42,0.7,2.02,2.05,2.02c4.54,0,9.08,0.01,13.62,0.01c1.6,0,2.31-0.86,2.3-2.43c-0.02-4.28-0.01-8.57-0.02-12.85
		c0-1.69-0.77-2.48-2.53-2.41c-2.14,0.09-4.28,0.02-6.42,0.02C867.51,508.4,867.51,508.41,867.51,508.41z"/>
	<path class="st3" d="M815.78,508.4c-2.23,0-4.46,0.06-6.68-0.02c-1.62-0.06-2.45,0.62-2.46,2.2c-0.02,4.45-0.02,8.91,0.01,13.36
		c0.01,1.47,0.85,2.14,2.3,2.13c4.45-0.02,8.91-0.03,13.36,0c1.66,0.01,2.26-0.75,2.24-2.36c-0.05-4.28-0.07-8.57,0.01-12.85
		c0.03-1.91-0.76-2.59-2.62-2.5C819.89,508.48,817.83,508.4,815.78,508.4z"/>
	<path class="st34" d="M989.25,417.89c0.2,0.14,0.4,0.28,0.6,0.43c2.98,0.28,5.97,0.04,8.95,0.13c1.6,0.05,2.44-0.71,2.49-2.24
		c0.16-5.2,0.25-10.41-0.06-15.61c-0.11-1.88-1.23-2.92-3.2-2.93c-1.96-0.01-3.93-0.03-5.89,0.01c-1.36,0.03-2.52,0.41-3.25,1.67
		c-0.75,5.81-0.32,11.64-0.23,17.46C988.67,417.23,988.93,417.59,989.25,417.89z"/>
	<path class="st35" d="M1038.12,418.38c0.16-0.16,0.33-0.31,0.49-0.47c0.89-1.87,0.52-3.86,0.55-5.81c0.05-3.6-0.03-7.19,0.03-10.79
		c0.03-2.04-0.74-3.03-2.86-2.96c-2.05,0.07-4.11,0.08-6.16,0c-1.96-0.08-2.95,0.94-3.03,2.71c-0.23,5.05-0.19,10.1-0.02,15.15
		c0.04,1.18,0.54,2.41,1.85,2.41C1032.01,418.63,1035.08,419.07,1038.12,418.38z"/>
	<path class="st36" d="M748.88,424.62c-1.24,1.74-1.44,3.77-1.44,5.8c-0.01,26.49,0.03,52.97,0.03,79.46
		c0,33.77-0.03,67.54-0.03,101.31c-0.01,33.26,0,66.51-0.01,99.77c0,2.8,0.46,5.44,2.48,7.57c0.45-0.52,0.45-1.04,0.01-1.56
		c-1.46-1.86-2.06-3.99-2.06-6.33c0.01-31.99,0.01-63.98,0.01-95.97c0-33.51,0-67.01,0-100.52c0-11.58,0-23.16,0-34.74
		c0-15.5,0.1-30.99-0.09-46.48C747.73,430.03,749.19,427.47,748.88,424.62z"/>
	<path class="st37" d="M749.9,716.97c0,0.52,0,1.04-0.01,1.56l0-0.01c1.15,0.95,2.47,1.65,3.58,2.66c0,0-0.04-0.01-0.04-0.01
		c0.9,0.01,1.88-0.42,2.64,0.43l0.24,0.03l0.24-0.01c0.9,0.44,1.85,0.22,2.78,0.22c19.95,0.01,39.9,0.03,59.84,0
		c10.34-0.01,20.67,0.03,31.01,0c1.41-0.53,0.44-1.18,0.08-1.79c-0.77,0.45-1.61,0.61-2.48,0.51c-5.87-0.7-11.75,0.09-17.62,0.06
		c-23.97-0.14-47.94-0.06-71.92-0.05c-3.17,0-5.77-0.98-7.53-3.77C750.5,716.47,750.13,716.66,749.9,716.97z"/>
	<path class="st38" d="M960.94,517.79c0,2.22-0.06,4.45,0.02,6.67c0.07,1.96,0.97,2.91,3.14,3.18c4.09,0.52,8.17,0.42,12.26,0.42
		c3.82,0,4.65-0.9,4.66-4.66c0-4.02,0-8.04,0-12.06c0-2.66-1.88-4.77-4.55-4.85c-3.5-0.11-7.02-0.13-10.52,0.01
		c-3.09,0.12-4.98,2.29-5,5.39C960.92,513.85,960.94,515.82,960.94,517.79z"/>
	<path class="st38" d="M861.58,655.27c31.08-1.4,62.17-0.27,93.26-0.58c2.03-0.02,4.07,0.38,6.11,0.58
		c-1.13-1.4-2.63-1.63-4.35-1.63c-26.41,0.04-52.81,0.03-79.22,0.03c-3.9,0-7.81,0.06-11.71-0.03
		C864.01,653.6,862.65,653.99,861.58,655.27z"/>
	<path class="st39" d="M1032.48,517.65c0-2.14,0-4.28,0-6.42c0-3.18-1.52-4.74-4.71-4.76c-3.31-0.03-6.62-0.02-9.92,0
		c-2.86,0.02-4.92,2.15-4.92,5.03c0,3.94,0,7.87,0,11.81c0,3.29,1.49,4.76,4.86,4.76c3.91,0.01,7.82-0.11,11.72,0.04
		c2.31,0.09,3.05-0.9,2.99-3.02C1032.43,522.61,1032.48,520.13,1032.48,517.65z"/>
	<path class="st40" d="M1038.12,418.38c-2.73-0.01-5.47-0.06-8.2,0c-1.55,0.03-2.08-0.59-2.06-2.14c0.08-4.95,0.08-9.91,0.01-14.87
		c-0.03-1.82,0.48-2.71,2.47-2.55c1.87,0.15,3.77,0.16,5.63,0c2.13-0.18,2.61,0.76,2.58,2.69c-0.07,5.47,0.02,10.94,0.05,16.4
		c0.47-0.18,0.54-0.59,0.58-1.02c0.36-6.34,0.44-12.67-0.06-19c-3.08-0.01-6.16-0.02-9.25-0.02c-0.85,0-1.74-0.15-2.35,0.68
		c-0.2,0.27-0.43,0.62-0.8,0.39c-3.57-2.21-7.51-0.54-11.23-1.08c-1.23,0.69-1.79,1.73-1.79,3.14c-0.01,5.02-0.01,10.04,0,15.06
		c0,0.87,0.15,1.7,0.76,2.37c2.9,1.05,5.94,0.68,8.83,0.4c3.77-0.37,7.47,0.46,11.2,0.09
		C1035.71,418.81,1037.05,419.46,1038.12,418.38z"/>
	<path class="st41" d="M1032.48,465.14c0-2.4-0.04-4.8,0.01-7.2c0.04-1.85-0.71-2.59-2.62-3.04c-4.81-1.13-9.52,0.34-14.28,0.15
		c-1.62-0.07-2.64,1.19-2.66,2.87c-0.05,4.88-0.05,9.77,0,14.65c0.02,1.64,2.44,3.88,4.03,3.43c3.59-1,7.1,0.01,10.63,0.09
		c3.43,0.08,4.87-1.1,4.88-4.53C1032.48,469.42,1032.48,467.28,1032.48,465.14z"/>
	<path class="st42" d="M834.33,398.35c-1.22-1.33-2.83-0.88-4.32-0.93c-2.13-0.06-4.27-0.03-6.41-0.04
		c-1.03,1.13-2.25,0.57-3.51,0.61c-2.73,0.08-5.44,0.2-8.17-0.01c-1.06-0.08-1.81,0.32-2.29,1.27c-0.27,5.83-0.68,11.66,0.24,17.46
		c1.35-0.44,1.43-0.46,1.49-2.15c0.12-3.41,0.03-6.83,0.05-10.25c0.01-0.85,0.01-1.71,0.06-2.56c0.07-1.36,0.8-1.99,2.12-2.04
		c0.34-0.01-0.09-0.01,0.26-0.01c6.93,0.06,6.81-1.13,7.29,6.56c0.17,2.81-0.01,5.64,0.04,8.46c0.03,1.76-0.76,2.38-2.46,2.45
		c-2.79,0.11-5.64-0.51-8.38,0.48c-0.3,0.21-0.36,0.47-0.21,0.79c3.44,0.91,6.93,0.48,10.41,0.34c0.85-0.03,1.66-0.35,2.45,0.19
		c3.95,0.4,7.91,0.4,11.86,0c0.18-0.16,0.36-0.31,0.54-0.47c0.86-0.92,0.65-2.07,0.69-3.17c0.13-3.75-0.23-7.52,0.22-11.26
		c0.29-1.68,0.35-3.39,0.44-5.1c-0.05-0.29-0.19-0.53-0.43-0.71C835.67,399.03,834.99,398.27,834.33,398.35
		c-0.53,0.59-0.29,1.28-0.28,1.96c0.11,4.95-0.01,9.91,0.07,14.86c0.03,1.87-0.7,2.65-2.57,2.57c-1.79-0.08-3.59-0.03-5.38-0.01
		c-1.23,0.01-1.93-0.41-1.94-1.76c-0.02-5.13,0.05-10.25-0.04-15.38c-0.02-1.15,0.61-1.46,1.61-1.48c1.88-0.02,3.76,0,5.64-0.02
		C832.46,399.08,833.51,399.14,834.33,398.35z"/>
	<path class="st43" d="M981.01,465.18c0-2.23-0.01-4.46,0-6.69c0.02-2.3-1.06-3.51-3.4-3.51c-4.29,0-8.57,0.01-12.86,0
		c-1.93-0.01-2.99,0.94-3.32,2.83c-0.9,5.19,0.36,10.36,0.12,15.56c-0.07,1.55,1.9,2.1,3.27,2.15c4.28,0.14,8.58,0.19,12.85-0.01
		c1.98-0.1,3.5-1.16,3.35-3.64C980.9,469.64,981.01,467.41,981.01,465.18z"/>
	<path class="st12" d="M810.13,418.43c0.03-0.22,0.06-0.44,0.09-0.67c0.2-0.26,0.19-0.51-0.03-0.76
		c-0.02-6.02-0.03-12.03-0.05-18.05c-0.63-0.85-1.62-0.97-2.51-0.94c-2.87,0.1-5.72,0.21-8.59-0.08c-0.58-0.06-1.21,0.06-1.3,0.86
		c1.81,1.47,3.95,0.79,5.95,0.85c4.07,0.11,4.37,0.26,4.56,4.33c0.17,3.51-0.02,7.03,0.07,10.54c0.05,2.05-0.9,2.67-2.8,2.64
		c-8.06-0.12-6.84,0.9-6.95-6.71c-0.04-2.74,0.02-5.48-0.02-8.22c-0.01-1.1,0.11-2.25-0.66-3.2c-0.25-0.28-0.51-0.3-0.79-0.04
		c-0.2,5.64-0.05,11.28-0.1,16.91c-0.01-5.56,0-11.11-0.01-16.67c-0.06-1.32-1.13-1.35-2.04-1.6c-3.19,0.13-6.4-0.29-9.59,0.22
		c-0.12,0.21-0.25,0.43-0.37,0.64c1.28,0.98,2.78,0.67,4.21,0.67c6.7,0,6.23-0.11,6.24,6.37c0,2.91-0.06,5.81,0.02,8.72
		c0.06,2.02-0.62,2.96-2.78,2.92c-8.01-0.13-6.87,0.82-6.97-6.71c-0.04-2.82,0.02-5.64-0.02-8.46c-0.02-1.09,0.12-2.25-0.8-3.12
		c-0.91,0.72-0.53,1.74-0.54,2.63c-0.06,5.13-0.07,10.26-0.09,15.39c0.1,0.56-0.01,1.2,0.55,1.6c3.69,0.35,7.39,0.27,11.08,0.03
		C800.63,419.06,805.39,419.39,810.13,418.43z"/>
	<path class="st44" d="M807.03,611.45c-1.21,1.44-1.64,3.07-1.57,4.98c0.12,3.5,0.01,7.01,0.04,10.51c0.03,3.26,0.87,4.08,4.04,4.08
		c4.27,0,8.55,0.01,12.82,0c2.32-0.01,3.65-1.2,3.69-3.55c0.08-4.19,0-8.38,0.04-12.56c0.01-1.42-1.2-2.23-1.55-3.45
		c-0.1-0.1-0.21-0.2-0.31-0.3c-1.08-0.55-2.27-0.31-3.41-0.46c-4.29-0.55-8.58,0.37-12.87-0.02
		C807.53,610.63,807.21,611.04,807.03,611.45z"/>
	<path class="st45" d="M978.91,560.05c0.01-0.19,0.02-0.38,0.03-0.57c-0.91-0.65-1.96-0.57-2.97-0.51
		c-4.32,0.24-8.69-0.61-12.98,0.5c-2.1,0.99-1.94,3.04-2.01,4.79c-0.15,3.85-0.11,7.71-0.03,11.56c0.06,3.17,0.68,3.71,3.79,3.71
		c4.45,0,8.91-0.03,13.36,0.02c2.07,0.02,2.94-0.9,2.92-2.95c-0.05-4.88-0.07-9.77,0.01-14.65c0.03-1.63-0.6-2.19-2.13-1.93
		c0.63,4.85-0.01,9.74,0.53,14.59c0.17,1.56-0.54,2.48-2.14,2.53c-4.02,0.13-8.04,0.09-12.07,0.02c-1.55-0.03-2.37-0.84-2.42-2.39
		c-0.11-3.68-0.15-7.36,0.02-11.04c0.09-1.93,1.2-2.93,3.16-2.97c3.17-0.06,6.33,0.01,9.5-0.04
		C976.66,560.73,977.91,560.95,978.91,560.05z"/>
	<path class="st46" d="M987.72,418.98c0.19-0.14,0.38-0.28,0.58-0.42c0.23-0.45,0.22-0.88-0.17-1.25c-2.53,0.29-5.07,0.36-7.62,0.4
		c-2.07,0.03-2.93-0.73-2.88-2.83c0.08-3.49,0.04-6.97,0.01-10.46c-0.01-1.62-0.09-3.24-0.87-4.72c-0.16-0.27-0.4-0.41-0.72-0.44
		c-0.81,0.4-0.24,1.23-0.52,1.73c-0.05-1.16,0.37-2.49-0.95-3.35c-3.32,0.11-6.68-0.56-9.95,0.54c-0.23,0.25-0.26,0.52-0.1,0.81
		c1.9,1.15,4.01,0.56,6.02,0.64c3.09,0.13,3.45,0.39,3.49,3.37c0.06,4.02-0.05,8.04,0.06,12.07c0.02,0.85,0.13,1.97-1.06,1.96
		c-3.03-0.02-6.14,0.86-9.05-0.71c-1.06-0.83-0.72-2.01-0.76-3.08c-0.16-4.58,0.29-9.17-0.25-13.74c-0.11-0.3-0.29-0.55-0.53-0.75
		c-0.48-0.15-0.91-0.16-1.19,0.35c-0.2,4.85-0.04,9.71-0.07,14.57c-0.02,3.48,0,3.43-3.59,3.52c-2.11,0.05-4.27-0.43-6.31,0.5
		c-0.27,0.22-0.33,0.48-0.18,0.8l0.01,0c3.63,0.38,7.26,0.32,10.89,0.03c4.25,0.01,8.49-0.03,12.74,0.05
		c0.89,0.02,1.78,0.45,2.67,0.68C980.86,419.03,984.3,419.51,987.72,418.98z"/>
	<path class="st47" d="M1014.47,559.47c-1.4,0.65-1.53,1.84-1.57,3.21c-0.13,4.53,0.28,9.06-0.23,13.6
		c-0.2,1.76,0.68,3.31,3.02,3.28c4.89-0.07,9.78-0.03,14.67-0.02c1.16,0,2.11-0.27,2.11-1.64c-0.01-5.83-0.05-11.66-0.1-17.49
		c0-0.32-0.25-0.63-0.39-0.95c-0.83-0.57-1.79-0.51-2.72-0.51c-4.02-0.01-8.03-0.01-12.05,0
		C1016.25,558.96,1015.3,558.9,1014.47,559.47z"/>
	<path class="st45" d="M963.51,610.95c-2.03,0.81-2.59,2.44-2.58,4.45c0.02,4.18,0.06,8.36-0.02,12.53
		c-0.04,2.24,0.72,3.43,3.11,3.1c0.23,0.26,0.51,0.52,0.84,0.54c4.58,0.34,9.17,0.35,13.75,0c0.34-0.03,0.61-0.29,0.84-0.55
		c1.57-0.14,1.55-1.28,1.55-2.43c-0.01-4.51,0-9.03-0.01-13.54c-0.01-3.41-0.11-3.51-3.61-3.65c-0.66-0.67-1.52-0.71-2.36-0.71
		c-3.46-0.01-6.92,0.08-10.38-0.17C964.22,610.49,963.84,610.65,963.51,610.95z"/>
	<path class="st48" d="M759.61,398.29c2.64,0.05,5.29,0.11,7.93,0.16c1.73,0.85,2.29,2.24,2.22,4.14
		c-0.2,5.26,0.25,10.53-0.29,15.79c-0.01,0.18-0.01,0.36-0.02,0.55c3.94,0.02,7.88,0.02,11.81,0.07c1.52,0.02,2.73-0.23,2.75-2.11
		c-0.03-5.46-0.15-10.91-0.05-16.37c0.05-2.44-0.79-3.51-3.25-3.18c-3.12,0.41-6.47-0.99-9.38,1.17c-3.79-1.78-7.78-0.01-11.64-0.66
		c-0.16,0.07-0.22,0.15-0.2,0.26C759.53,398.24,759.56,398.29,759.61,398.29z"/>
	<path class="st49" d="M989.29,399.49c1.58-1.79,3.69-1.05,5.57-1.05c5.77-0.01,5.71-1.17,5.62,5.6c-0.05,3.94-0.09,7.88,0.03,11.82
		c0.05,1.73-0.57,2.22-2.21,2.23c-2.82,0.03-5.65-0.35-8.45,0.23c1.27,1.35,2.89,0.53,4.33,0.64c1.95,0.14,3.93,0.02,5.89,0.01
		c0.96-0.83,2.33,0.24,3.27-0.72c0.14-0.53,0.01-1.05,0.02-1.58c0.04-4.54-0.01-9.09,0.04-13.63c0.01-1.16-0.25-2.41,0.66-3.41
		c0.23-0.14,0.44-0.32,0.61-0.53c0.29-1.25-0.68-1.13-1.38-1.24c-0.67-0.11-1.36,0.15-2.03-0.12c-0.76-0.3-1.45-0.75-2.26-0.94
		c-2.44-0.3-4.87-0.33-7.3,0.02c-1,0.15-1.97,0.49-2.59,1.4C988.91,398.68,988.93,399.11,989.29,399.49z"/>
	<path class="st50" d="M898.14,418.45c0.1-0.09,0.22-0.13,0.36-0.12c0.76-0.47,0.7-1.2,0.64-1.94c-0.05-0.3-0.12-0.6-0.2-0.89
		c0.01-4.61-0.37-9.21,0.31-13.81c0.4-2.71-0.8-4.01-3.57-4.01c-2.64,0-5.29-0.35-7.91,0.28c-1.4,0.62-1.63,1.84-1.65,3.18
		c-0.05,4.78-0.14,9.55,0,14.33c0.08,2.77,0.58,3.24,3.39,3.2C892.38,418.64,895.27,418.91,898.14,418.45z"/>
	<path class="st51" d="M867.48,631.02c2.39,0,4.79-0.04,7.18,0.01c2.08,0.05,2.93-0.92,2.9-2.96c-0.05-4.62-0.04-9.23-0.01-13.85
		c0.01-1.94-0.9-2.8-2.82-2.78c-4.7,0.03-9.41,0.11-14.11-0.03c-2.34-0.07-2.93,1.39-2.82,3.04c0.33,4.61,0.13,9.22,0.12,13.83
		c-0.01,2.17,0.79,2.89,2.88,2.77C863.03,630.92,865.26,631.02,867.48,631.02z"/>
	<path class="st52" d="M836.84,397.82c-0.18,0.15-0.36,0.3-0.54,0.45c0.07,0.09,0.15,0.17,0.22,0.26c2.09,1.14,4.36,0.5,6.54,0.6
		c3.06,0.15,3.31,0.31,3.34,3.44c0.03,4.02,0.05,8.04-0.01,12.05c-0.04,2.64-0.37,2.89-2.96,3.04c-2.11,0.12-4.28-0.4-6.33,0.5
		c-0.29,0.21-0.36,0.47-0.2,0.79c3.72-0.05,7.42,0.02,11.15-0.27c2.86-0.23,5.9,0.21,8.86,0.23c0.92,0.01,1.88,0.17,2.74-0.35
		c-0.12-0.28-0.3-0.52-0.55-0.7c-2.16-1.16-4.51-0.68-6.77-0.67c-2.08,0-2.92-0.78-2.84-2.87c0.13-3.74-0.17-7.5,0.15-11.24
		c0.28-3.24,0.55-3.35,3.74-3.45c2.02-0.06,4.1,0.43,6.04-0.53c0.25-0.23,0.3-0.51,0.17-0.82c-3.22-1.25-6.57-0.47-9.85-0.53
		c-1.1-0.02-2.2,0.01-3.3-0.14C843.23,397.74,840.03,397.33,836.84,397.82z"/>
	<path class="st53" d="M872.47,418.55c1.27-0.83,2.02,0.35,2.96,0.78c3.11-0.4,6.25,0.21,9.35-0.33c0.4-0.09,0.89-0.07,0.87-0.69
		c-1.6-1.33-3.44-0.59-5.18-0.57c-5.28,0.08-5.28,0.1-5.28-5.07c0-3.59,0.08-7.17-0.03-10.76c-0.06-2.07,0.61-2.93,2.77-2.87
		c2.29,0.07,4.61,0.32,6.88-0.24c0.29-0.14,0.49-0.36,0.6-0.65c-0.06-0.32-0.24-0.55-0.53-0.7c-3.27-0.57-6.56-0.33-9.85-0.16
		c-1.03,0.4-2.08,0.7-3.21,0.42c-3.29,0.04-6.6-0.38-9.88,0.25c-0.48,0.24-0.64,0.64-0.56,1.15c0.11,0.31,0.33,0.49,0.66,0.55
		c2.39,0.07,4.78-0.01,7.17-0.02c1.75-0.01,2.46,0.74,2.44,2.46c-0.03,3.5-0.01,7.01,0,10.51c0,1.88,0.06,3.76,0.54,5.59
		C872.28,418.32,872.37,418.43,872.47,418.55z"/>
	<path class="st54" d="M914.61,611.4c-5.01,0.15-5.25,0.29-5.11,5.54c0.1,3.65,0.76,7.26,0.04,10.96c-0.37,1.9,0.65,3.2,2.98,3.15
		c4.54-0.1,9.09,0,13.63-0.04c2.37-0.02,3.66-1.13,3.28-3.23c-0.77-4.27-0.25-8.54-0.38-12.81c-0.11-3.52-0.03-3.52-3.64-3.53
		c-1.03,0-2.06-0.03-3.09-0.04C919.76,610.3,917.18,610.3,914.61,611.4z"/>
	<path class="st55" d="M911.1,418.52c4.12,0.43,8.23,0.85,12.36,0.09c-0.05-0.14-0.09-0.29-0.14-0.43c-0.79-1.02-1.95-0.96-3.05-1
		c-1.37-0.06-2.75-0.06-4.11-0.02c-1.85,0.06-2.52-0.63-2.43-2.59c0.21-5.05,0.25-10.11-0.02-15.16c-0.06-0.28-0.16-0.55-0.31-0.8
		c-0.32-0.43-0.66-0.37-1.02-0.06c-0.32,0.38-0.28,0.88-0.39,1.37c0.05-0.73-0.06-1.36-0.66-1.82c-3.83-0.82-7.66-0.84-11.49,0
		c-0.42,0.34-0.46,0.77-0.28,1.25c2.5,0.76,5.06,0.13,7.59,0.27c2.78,0.16,3.06,0.34,3.09,3.13c0.07,5.19-0.09,10.39,0.11,15.58
		C910.54,418.65,910.79,418.71,911.1,418.52z"/>
	<path class="st56" d="M913.07,398.37c0.01,0.2,0.03,0.41,0.04,0.61c2.06,1.23,4.33,0.57,6.5,0.67c3.21,0.14,3.4,0.28,3.47,3.56
		c0.11,5.02-0.25,10.05,0.19,15.07c0.06,0.11,0.12,0.22,0.18,0.32c3.27,0.11,6.54,0.24,9.82,0.32c1.17,0.03,2.38,0.13,3.47-0.47
		c0.17-0.31,0.11-0.57-0.17-0.78c-2.39-0.97-4.9-0.39-7.35-0.5c-2.81-0.13-3.01-0.25-3.03-3.14c-0.03-3.67-0.03-7.35,0-11.02
		c0.03-3.32,0.53-3.75,3.92-3.88c2.13-0.09,4.26,0.3,6.39,0c0.3-0.16,0.45-0.41,0.46-0.75c-0.14-0.76-0.72-0.99-1.36-1.16
		c-2.84-0.16-5.69-0.09-8.53-0.05c-3.3,1.67-6.75-0.1-10.11,0.42C915.65,397.8,914.21,397.32,913.07,398.37z"/>
	<path class="st50" d="M885.2,398.47c-2.82-0.04-5.65-0.03-8.47-0.13c-1.52-0.05-2.18,0.54-2.17,2.09
		c0.03,5.22,0.03,10.44-0.02,15.66c-0.02,1.71,0.85,2.24,2.4,2.22c2.9-0.03,5.8-0.01,8.7,0c0.01-0.14,0.06-0.27,0.14-0.38
		c0.65-0.71,0.56-1.59,0.48-2.42c-0.36-4.15-0.22-8.3-0.04-12.45C886.29,401.54,887.22,399.6,885.2,398.47z"/>
	<path class="st57" d="M951.13,418.48c0.01-0.18,0.02-0.36,0.03-0.54c0.85-1.48,0.74-3.11,0.75-4.72c0.02-3.57,0.08-7.14-0.02-10.7
		c-0.06-2,0.64-3.25,2.59-3.75c0.26-0.15,0.41-0.39,0.44-0.69c-0.61-1.23-1.7-1.23-2.77-0.93c-1.33,0.37-2.63,0.21-3.94,0.04
		c-2.89,0.02-5.77-0.2-8.66,0.13c-0.3,0.09-0.57,0.25-0.79,0.47c-0.12,0.32-0.06,0.59,0.2,0.82c2.12,1,4.37,0.42,6.56,0.54
		c2.81,0.16,3.27,0.53,3.31,3.35c0.05,3.93,0.05,7.86,0,11.79c-0.03,2.61-0.28,2.79-3.03,2.88c-2.64,0.09-5.29-0.25-7.92,0.12
		c-0.27,0.22-0.32,0.49-0.17,0.81c0.7,1,1.77,0.87,2.78,0.88C944.03,419,947.6,419.12,951.13,418.48z"/>
	<path class="st58" d="M1001.05,398.39c1.16,0.82,2.52-0.84,3.66,0.3c1.26,1.5,3.01,0.96,4.55,0.94c2.05-0.02,2.94,0.69,2.89,2.83
		c-0.1,4.19-0.04,8.38-0.03,12.56c0.01,1.84-0.79,2.56-2.62,2.64c-2.18,0.1-4.45-0.55-6.53,0.61c-1.03-0.06-2.09-0.23-2.9,0.68
		c4.79-0.26,9.63,0.56,14.39-0.52c0-5.77,0.03-11.54-0.04-17.31c-0.01-1.26,0.27-2.33,1.07-3.27c-3.26-0.01-6.52-0.01-9.78-0.02
		c-0.27-0.29-0.61-0.46-0.99-0.54c-0.76-0.11-1.52-0.09-2.28-0.01c-0.25,0.04-0.5,0.11-0.73,0.22
		C1001.36,397.71,1001.13,397.99,1001.05,398.39z"/>
	<path class="st52" d="M859.65,418.57c2.93,0.12,5.86,0.3,8.79,0.35c1.34,0.02,2.74,0.3,4.03-0.37c-0.06-0.1-0.13-0.2-0.19-0.29
		c-0.8-0.98-1.93-1.01-3.05-1.06c-1.29-0.06-2.58-0.09-3.86-0.02c-1.96,0.11-2.71-0.57-2.6-2.67c0.22-4.28,0.36-8.57-0.38-12.83
		c-0.13-0.76-0.11-1.55-0.66-2.17c-0.09-0.06-0.18-0.12-0.27-0.19c-0.3-0.05-0.53,0.06-0.69,0.33c-0.86,1.43,0.28,2.87-0.05,4.68
		c0-0.03-0.54-0.43-0.21-0.35c0.16,0.04,0.23,0,0.22-0.12c-0.03-0.68,0.5-1.95-1.07-0.99c-0.77,5.14-0.42,10.3-0.24,15.45
		C859.5,418.4,859.57,418.48,859.65,418.57z"/>
	<path class="st59" d="M911.1,418.52c-0.25-0.06-0.51-0.13-0.76-0.19c-0.96-1.54-2.54-1.15-3.92-1.18
		c-6.52-0.12-5.91,0.77-5.94-6.11c-0.02-2.81,0.02-5.61-0.02-8.42c-0.02-1.09,0.12-2.24-0.74-3.14c-0.01-0.35-0.02-0.7-0.03-1.05
		c-0.76-0.75-1.68-1.14-2.73-1.24c-2.72-0.03-5.44-0.14-8.16,0.06c-0.29,0.06-0.56,0.19-0.81,0.36c-0.25,0.23-0.3,0.49-0.14,0.79
		c2.47-0.01,4.94-0.05,7.4-0.04c3.13,0.01,3.46,0.4,3.2,3.61c-0.36,4.51-0.18,9.02-0.13,13.53c0,0.32,0.17,0.64,0.27,0.96
		c0.69-4.05,0.11-8.14,0.37-12.2c-0.34,4.06,0.4,8.15-0.37,12.21c-0.03,0.62-0.06,1.25-0.1,1.87
		C902.69,419.22,906.89,419.36,911.1,418.52z"/>
	<path class="st60" d="M850.27,720.06c0.17,0.51,0.35,1.02,0.52,1.53c0.17,0.19,0.34,0.2,0.52,0.02c0,0,0,0.01,0,0.01
		c0-20.05,0-40.09,0-60.14c-0.11,3.23-0.72,6.4-0.66,9.66c0.14,7.6,0.19,15.21-0.15,22.84c-0.27,5.98,0.33,12.04,0.26,18.06
		C850.73,714.71,850.44,717.39,850.27,720.06z"/>
	<path class="st61" d="M887.86,398.4c-0.01-0.18-0.01-0.37-0.02-0.55c-0.86-0.55-1.72-0.34-2.58,0.02c-0.02,0.2-0.04,0.4-0.06,0.6
		c0.97,1.68,0.43,3.49,0.36,5.23c-0.19,4.75-0.29,9.49,0.21,14.23c1.02,0.9,2.22,1.2,3.56,1.07c2.93-0.29,5.93,0.62,8.81-0.54
		c-2.96-0.45-5.95-0.18-8.91-0.13c-1.73,0.02-2.43-0.27-2.39-2.19c0.09-4.85-0.05-9.7-0.11-14.55
		C886.72,400.37,886.64,399.16,887.86,398.4z"/>
	<path class="st62" d="M989.29,399.49c-0.01-0.35-0.02-0.7-0.03-1.05c-0.45-0.94-1.32-1.39-2.22-1.54
		c-3.11-0.52-6.25-0.51-9.36-0.01c-0.93,0.15-1.73,0.7-2.04,1.71c-0.04,0.33,0.06,0.61,0.31,0.84c0.14-0.02,0.28-0.04,0.42-0.05
		c2.39-0.17,4.77-0.29,7.17-0.25c3.6,0.06,3.87,0.3,3.9,4.01c0.02,3.68-0.02,7.36,0.02,11.04c0.01,1.09-0.14,2.25,0.72,3.16
		c0.04,0.4,0.09,0.8,0.13,1.2c0.4-0.1,0.81-0.19,0.95-0.67C989.27,411.75,989.28,405.62,989.29,399.49z"/>
	<path class="st63" d="M938.82,398.41c-0.01-0.19-0.01-0.39-0.02-0.58c-0.78-0.37-1.16,1.06-2,0.45c-0.05,0.25-0.09,0.5-0.14,0.74
		c-0.71,0.75-0.71,1.71-0.72,2.65c-0.04,4.53-0.05,9.05,0,13.58c0.01,0.94,0.07,1.89,0.78,2.63c0.01,0.19,0.02,0.38,0.03,0.58
		c0.31-0.12,0.63-0.25,0.94-0.37c0.06-0.28,0.13-0.56,0.19-0.84c0.82-0.35,1.08-1.1,1.08-1.87
		C939.03,409.73,939.39,404.07,938.82,398.41z"/>
	<path class="st64" d="M963.51,610.95c4.61,0.9,9.26,0.37,13.89,0.45c0.71-0.85,1.83-0.13,2.77-0.78c-1.22-1.24-2.72-0.66-4.01-0.69
		c-4.04-0.09-8.09-0.03-12.14,0.02C963.46,609.95,962.35,609.94,963.51,610.95z"/>
	<path class="st65" d="M979.46,631.02c-5.14,0-10.29,0.01-15.43,0.01c-0.38,0.3-1.08,0.6-1.08,0.9c0,0.6,0.69,0.62,1.18,0.62
		c4.71,0.01,9.42,0.02,14.14,0C979.25,632.55,980.04,632.3,979.46,631.02z"/>
	<path class="st64" d="M807.03,611.45c2.62-0.01,5.24,0.05,7.85-0.03c2.02-0.07,4.03-0.88,6.05-0.01c1.21-0.29,2.41-0.41,3.6,0.05
		c0,0,0,0,0,0c-0.24-1.25-0.34-1.49-1.48-1.5c-4.99-0.06-9.98-0.05-14.96-0.01C807.22,609.95,806.3,610.18,807.03,611.45z"/>
	<path class="st66" d="M1014.94,632.56c2.52,0,5.03,0,7.54,0c2.47,0,4.95,0,7.42-0.02c0.53,0,1.12-0.15,1.17-0.75
		c0.04-0.46-0.45-0.73-0.89-0.73c-4.85,0.04-9.71-0.31-14.55,0.2c-0.29,0.03-0.55,0.34-0.82,0.52
		C1014.85,632.04,1014.89,632.3,1014.94,632.56z"/>
	<path class="st67" d="M914.61,611.4c2.57,0,5.15,0,7.72,0c1.81-1.06,3.87,0.02,5.73-1.04c-5.69-0.55-11.38-0.43-17.09-0.13
		C912,611.52,913.59,610.34,914.61,611.4z"/>
	<path class="st68" d="M807.5,559.34c5.52,0,11.04,0,16.55,0c0-0.26,0.01-0.52,0.01-0.78c-5.5-0.25-11.01-0.08-16.52-0.09
		C807.53,558.76,807.52,559.05,807.5,559.34z"/>
	<path class="st69" d="M910.97,559.29c5.65,0,11.29,0,16.94,0c-5.62-1.34-11.28-0.65-16.93-0.85
		C910.98,558.72,910.97,559.01,910.97,559.29z"/>
	<path class="st70" d="M1014.47,559.47c5.83,0,11.67,0,17.5,0c-0.42-0.94-1.23-1.03-2.13-1.03c-4.41,0.01-8.83,0.01-13.24,0
		C1015.7,558.44,1014.89,558.53,1014.47,559.47z"/>
	<path class="st68" d="M875.96,559.23c-5.46-1.15-10.95-0.63-16.43-0.79c0,0.26-0.01,0.53-0.01,0.79
		C865,559.23,870.48,559.23,875.96,559.23z"/>
	<path class="st71" d="M962.99,559.48c5.32,0,10.64,0,15.95,0.01c0.25-0.02,0.56,0.04,0.75-0.07c0.68-0.42,0.05-0.38-0.19-0.46
		c-2.47-0.81-5.03-0.45-7.55-0.5c-2.2-0.04-4.4-0.03-6.61,0C964.44,558.47,963.37,558.2,962.99,559.48z"/>
	<path class="st72" d="M859.71,610.9c5.39,0,10.78,0,16.23,0C875.2,610.28,861.88,610.18,859.71,610.9z"/>
	<path class="st73" d="M1039.13,397.89c0.02,6.33,0.04,12.67,0.06,19c0.16,0,0.31,0,0.47-0.01c0.01-6.17,0.02-12.34,0.03-18.51
		C1039.56,398.14,1039.91,397.36,1039.13,397.89z"/>
	<path class="st74" d="M1030.9,610.8c-5.11,0.14-10.2-1.37-15.32,0C1020.69,610.8,1025.8,610.8,1030.9,610.8z"/>
	<path class="st75" d="M836.89,418.96c0-0.18,0-0.36,0.01-0.54c-0.03-4.26-0.43-8.51-0.32-12.78c0.02-0.76-0.07-1.54-0.67-2.14
		c-0.85,0.62-0.56,1.53-0.56,2.34c-0.01,4.22,0.01,8.44,0.03,12.66C835.88,418.65,836.39,418.81,836.89,418.96z"/>
	<path class="st75" d="M834.84,418.96c-3.95,0-7.91,0-11.86,0C826.93,419.8,830.89,419.78,834.84,418.96z"/>
	<path class="st76" d="M795.88,418.53c-3.69-0.01-7.39-0.02-11.08-0.03C788.49,419.3,792.18,419.25,795.88,418.53z"/>
	<path class="st77" d="M962.02,418.51c-3.63-0.01-7.26-0.02-10.89-0.03C954.76,419.32,958.39,419.29,962.02,418.51z"/>
	<path class="st62" d="M987.72,418.98c-3.43,0.1-6.88-0.38-10.29,0.27C980.87,419.41,984.31,419.9,987.72,418.98z"/>
	<path class="st61" d="M884.77,418.99c-3.11,0.12-6.25-0.44-9.35,0.34C878.54,419.37,881.69,419.96,884.77,418.99z"/>
	<path class="st3" d="M1214.59,658.34c-1.49-2.71-3.97-3.67-6.86-3.68c-10.97-0.04-21.94-0.02-32.91-0.02
		c-2.09,0-4.05,0.55-5.85,1.63c-1.88,2.22-2.18,4.8-2.16,7.64c0.09,18.29,0.04,36.58,0.06,54.86c0,1.1,0.15,2.2,0.24,3.3
		c2.41-1.3,3.76-3.64,5.35-5.68c7.08-9.05,14.02-18.21,20.98-27.34c5.52-7.24,11-14.52,16.5-21.77c1.18-1.55,2.4-3.06,3.83-4.87
		c1.04,3.1-0.34,6.06,0.86,8.73C1214.64,666.87,1215.06,662.6,1214.59,658.34z"/>
	<path class="st78" d="M936.8,398.28c1.07,1.65,1.23-0.73,2-0.45c0,0,0.19-0.05,0.19-0.05l0.2,0.01c3.16-0.32,6.31-0.36,9.46,0.03
		c1.04,0.38,2.04,0.71,3.15,0.04c0.94-0.56,1.98-0.33,2.96,0.03c1.25,1.43,2.9,1.11,4.5,1.07c1.06-0.03,2.11-0.69,3.18-0.04l0,0.01
		c0.92,0.59,1.5,0.03,2.07-0.6c3.34-0.27,6.7,0.26,10.02-0.29c0.74-0.21,0.44,1.24,1.31,0.82c0.46-0.79,1.15-1.4,2.05-1.38
		c3.81,0.05,7.7-0.87,11.36,0.95c2.21-1.55,4.74-0.83,7.14-0.98c1.01-0.06,2.03-0.05,3.04-0.08c0.72,0.15,1.37,0.64,2.16,0.47
		c0.17,0,0.34-0.01,0.51-0.01c0.86-0.4,1.72-0.4,2.57-0.01c0.34,0,0.69,0,1.03,0c0.11-0.64,1.44-0.32,1.07-1
		c-0.49-0.89-1.58-1.08-2.61-1.05c-2.04,1.04-4.08,0.01-6.12,0.01c-6.16-0.01-12.32-0.01-18.48,0c-1.1,0-2.22-0.17-3.19,0.66
		c-0.27,0.23-0.85,0.32-1.19,0.21c-4.06-1.37-8.07-1.28-12.18-0.03c-1.27,0.38-2.55-0.94-4.11-0.9c-6.04,0.16-12.1-0.19-18.12,0.18
		c-2.73,0.16-5.38-0.14-8.07-0.11c-5.52,0.07-11.06-0.21-16.54,0.15c-4.25,0.28-8.44-0.63-12.61-0.1
		c-4.51,0.58-8.98-0.28-13.47-0.05c-1.09,0.06-2.22-0.2-3.2,0.62c-0.28,0.23-0.92,0.41-1.17,0.25c-2.63-1.65-5.63-1.16-8.26-0.73
		c-4.05,0.66-7.94-0.49-11.9-0.15c-1.42,0.12-2.91-0.27-4.19,0.79c-0.27,0.22-0.94,0.32-1.21,0.14c-2.36-1.57-5-0.67-7.5-0.93
		c-2.04-0.21-3.87,0.27-5.48,1.54c1.08,1.02,2.41,0.34,3.62,0.52c2.31,0,4.63,0,6.94,0c1.37-0.31,2.65,0.85,4.04,0.26
		c3.54,0.12,7.09-0.32,10.62,0.23c0.88,0.67,1.56,0.51,2.06-0.47c3.6-0.49,7.19-0.46,10.79-0.01c0,0,0,0,0,0
		c0.86,0.7,1.72,0.1,2.58-0.02c0.15-0.03,0.3-0.06,0.46-0.06c3.13-0.28,6.25-0.35,9.38,0.02c0.75-0.04,1.11,1.19,2.02,0.63
		c3.96-0.09,7.95-0.75,11.88,0.36c0.31,0.4,0.62,0.4,0.92,0c0.19-0.14,0.38-0.28,0.57-0.42c3.71,0.06,7.44-0.72,11.15,0.43
		c0.72,0.22,1.77-0.64,2.66-1c2.96-0.33,5.92-0.37,8.88,0.02C936.18,397.82,936.59,397.82,936.8,398.28z"/>
	<path class="st79" d="M784.88,398.87c0,5.74,0.05,11.47-0.02,17.21c-0.02,1.44,0.38,2.02,1.85,1.99c2.57-0.06,5.14-0.04,7.71,0.01
		c1.26,0.02,1.85-0.35,1.83-1.75c-0.08-5.14-0.09-10.28-0.06-15.42c0.01-1.92-0.95-2.58-2.71-2.54c-2.83,0.06-5.65,0.07-8.48,0.11
		C784.99,398.62,784.96,398.75,784.88,398.87z"/>
	<path class="st80" d="M797.84,398.95c0.16-0.19,0.31-0.53,0.47-0.53c3.96-0.07,7.95-0.75,11.84,0.54
		c3.29-1.54,10.91-0.91,12.14,1.2c0.12-1.2,0.47-2.13,1.33-2.77c-3.87,0.03-7.7,0.75-11.63,0.24c-2.97-0.38-6.05,0.22-9.08,0.21
		c-2.6-0.01-5.19-0.28-7.78-0.44c-0.12,0.21-0.07,0.36,0.17,0.44c0.49,0.34,0.99,0.69,1.48,1.03c0.13,0.26,0.3,0.29,0.51,0.09
		C797.46,398.94,797.65,398.95,797.84,398.95L797.84,398.95z"/>
	<path class="st80" d="M850.79,397.34c-1.2,0-2.4-0.01-3.6-0.01c-0.18,0.01-0.37,0.01-0.55,0.02c-0.15,0.15-0.18,0.26-0.09,0.34
		c0.07,0.06,0.14,0.09,0.22,0.09c0.65,0.27,0.99,1.05,1.97,0.84c3.57-0.76,7.19-0.29,10.8-0.27c0.21,0.25,0.27,0.57,0.47,0.83
		c0.33,0.29,0.66,0.57,1.13,0.28c0.12-0.03,0.23-0.08,0.33-0.16c0.06-0.29,0.13-0.58,0.19-0.87c0.15-0.14,0.19-0.26,0.13-0.39
		c-0.06-0.12-0.12-0.18-0.17-0.18c-1.21-0.17-2.41-0.35-3.62-0.52C855.59,397.78,853.19,397.78,850.79,397.34z"/>
	<path class="st80" d="M759.61,398.29c0.04-0.14,0.08-0.29,0.09-0.43c-2.6-0.42-5.19-0.05-7.79,0.01
		C754.46,398.39,757.02,398.47,759.61,398.29z"/>
	<path class="st76" d="M795.28,397.82c-0.06-0.14-0.12-0.29-0.17-0.44c-3.24,0.26-6.53-0.52-9.75,0.45
		C788.67,397.83,791.97,397.82,795.28,397.82z"/>
	<path class="st75" d="M846.77,397.78c-0.06-0.14-0.1-0.28-0.13-0.43c-3.26,0.28-6.57-0.52-9.8,0.46
		C840.15,397.81,843.46,397.79,846.77,397.78z"/>
	<path class="st15" d="M753.47,721.18c-0.72-1.52-2.11-2.15-3.58-2.66C750.79,719.81,751.91,720.8,753.47,721.18z"/>
	<path class="st29" d="M1252.25,721.59c-1.64-1.01-3.46-0.51-5.17-0.45c-3.07,0.11-6.2-0.66-9.23,0.44
		C1242.66,721.59,1247.45,721.59,1252.25,721.59z"/>
	<path class="st29" d="M1278.5,721.58c-3.45-1.08-7-0.29-10.49-0.45c-1.28-0.06-2.7-0.52-3.9,0.45
		C1268.9,721.59,1273.7,721.59,1278.5,721.58z"/>
	<path class="st29" d="M1303.72,721.59c-3.94-0.81-7.88-0.81-11.82,0C1295.84,721.59,1299.78,721.59,1303.72,721.59z"/>
	<path class="st29" d="M1224.46,721.58c-1.19-0.78-2.39-0.78-3.58,0C1222.07,721.58,1223.26,721.58,1224.46,721.58z"/>
	<path class="st15" d="M851.31,721.61c-0.17-0.01-0.35-0.01-0.52-0.02c-7.58,0-15.15,0.01-22.73,0.01
		c-23.83,0.01-47.67,0.01-71.5,0.02c0.8,0.73,1.79,0.44,2.7,0.44c29.7,0.02,59.41,0.02,89.11,0
		C849.35,722.06,850.44,722.45,851.31,721.61z"/>
	<path class="st50" d="M769.47,418.39c1.23-0.32,1.11-1.26,1.1-2.23c-0.02-4.92-0.09-9.85,0.07-14.77c0.08-2.4-0.78-3.32-3.11-2.94
		c-2,0.64-4.06,0.24-6.09,0.28c-1.5,0.03-2.03,0.44-1.98,2.12c0.14,4.93,0.2,9.88-0.1,14.81c-0.14,2.24,0.96,2.41,2.49,2.57
		C764.39,418.5,766.95,417.84,769.47,418.39z"/>
	<path class="st19" d="M1173.53,627.9c0.44-5.57-5.13-9.11-8.79-9.18c-4.71-0.1-9.15,4.27-9.19,8.93c-0.05,4.82,4.34,9.41,8.97,9.44
		C1169.05,637.12,1174.12,632.68,1173.53,627.9z"/>
	<path class="st19" d="M1261.46,628c0.03,4.96,4.27,9.15,9.2,9.08c4.46-0.06,8.89-4.53,8.8-9.01c-0.11-5.8-3.98-8.91-8.72-9.28
		C1265.63,618.39,1261.43,622.85,1261.46,628z"/>
	<path class="st19" d="M1270.25,475.51c4.89,0.04,9.2-4.21,9.22-9.09c0.02-4.7-4.28-9.42-8.87-9.21c-5.06,0.23-9.07,3.54-9.14,9.11
		C1261.4,471.2,1265.51,475.46,1270.25,475.51z"/>
	<path class="st2" d="M1226.49,466.36c0.19-5.54-4.32-9-9.05-9.17c-4.76-0.17-8.9,4.26-8.91,9.11c-0.01,4.82,4.23,9.23,8.84,9.2
		C1222.4,475.47,1226.48,471.37,1226.49,466.36z"/>
	<path class="st19" d="M1226.49,627.89c0.01-4.9-4.03-9.09-8.83-9.18c-4.63-0.08-9.11,4.31-9.13,8.95
		c-0.01,5.07,4.06,9.41,8.91,9.41C1221.6,637.07,1226.87,633.25,1226.49,627.89z"/>
	<path class="st19" d="M1270.5,349.49c-5.12,0-9.09,4.02-9.04,9.15c0.05,5,4.05,8.9,9.08,8.87c4.92-0.03,8.93-4.1,8.92-9.05
		C1279.46,353.53,1275.42,349.49,1270.5,349.49z"/>
	<path class="st19" d="M1270.51,511.1c-5-0.01-9.05,3.96-9.07,8.9c-0.02,4.9,4.32,9.36,9.08,9.34c4.65-0.02,8.92-4.41,8.95-9.22
		C1279.51,515.27,1275.37,511.11,1270.51,511.1z"/>
	<path class="st2" d="M1164.51,511.1c-4.78,0.02-9.08,4.37-8.97,9.07c0.12,4.91,4.26,9.04,9.04,9.01c5.09-0.03,8.99-4.05,8.96-9.22
		C1173.51,515.02,1169.5,511.08,1164.51,511.1z"/>
	<path class="st19" d="M1261.46,250.71c0,5.14,4.2,9.21,9.37,9.1c4.69-0.1,8.62-4.24,8.64-9.08c0.02-5.11-3.79-8.84-9-8.8
		C1265.25,241.96,1261.45,245.67,1261.46,250.71z"/>
	<path class="st2" d="M1261.46,573.97c-0.05,4.93,3.85,8.89,8.9,9.03c4.82,0.14,9.07-3.99,9.1-8.85c0.04-4.99-3.85-9-8.82-9.09
		C1265.41,564.97,1261.52,568.75,1261.46,573.97z"/>
	<path class="st2" d="M1226.49,573.79c-0.04-5.23-3.78-8.74-9.3-8.71c-4.78,0.03-8.76,4.15-8.65,8.95c0.12,5.03,4.1,8.99,9.01,8.98
		C1222.62,582.99,1226.52,578.96,1226.49,573.79z"/>
	<path class="st19" d="M1270.44,403.48c-5.06,0.03-9.06,4.09-8.99,9.13c0.06,4.9,4.14,8.82,9.13,8.78c4.99-0.04,8.97-4.08,8.9-9.03
		C1279.41,407.4,1275.39,403.45,1270.44,403.48z"/>
	<path class="st2" d="M1212.61,350.98c-1.39,1.77-2.9,3.48-3.58,5.7c0.01,1.71,0.01,3.41,0.02,5.12c3.22,7.15,11.97,7.22,15.69,2.09
		c2.65-3.65,2.44-8.29-0.58-11.48C1220.95,349.01,1216.58,348.47,1212.61,350.98z"/>
	<path class="st2" d="M1159.65,581.58c3.42,1.9,6.84,2,10.12-0.22c3.04-2.06,4.05-5.04,3.73-8.67c-0.43-4.87-5.34-8.44-10.56-7.5
		c-0.75,0.14-1.49,0.34-2.24,0.51C1154.56,568.24,1153.25,577.78,1159.65,581.58z"/>
	<path class="st2" d="M1209.02,414.85c0.86,3.61,3.8,6.1,7.41,6.27c5,0.23,8.32-1.76,9.68-5.79c1.24-3.67-0.09-7.97-3.11-10.03
		c-4.14-2.83-7.72-2.59-11.9,0.81c-0.49,0.7-1.07,1.34-1.56,2.04h0C1208.85,410.34,1208.07,412.53,1209.02,414.85z"/>
	<path class="st2" d="M1222.42,527.58c4.42-3.1,4.7-6.48,3.73-10.26c-0.98-3.81-5.23-6.39-9.32-6.2c-6.68,0.31-10.4,7.93-6.78,13.87
		C1213.61,529.4,1217.48,530.21,1222.42,527.58z"/>
	<path class="st19" d="M1265.65,189.38c-0.89,1.49-2.54,2.41-3.1,4.14c-1.22,3.97-0.17,7.38,2.54,10.38
		c4.26,3.77,10.12,1.82,12.74-1.9c2.91-4.12,1.76-9.95-2.37-12.62C1272.15,187.23,1268.92,187.38,1265.65,189.38z"/>
	<path class="st2" d="M1264.1,310.87c4.44,3.81,9.47,3.67,13.07-0.37c3.39-3.79,3.08-8.98-0.73-12.49c-2.81-2.08-5.88-2.7-9.2-1.54
		c-4.71,1.64-6.99,7.54-4.66,12.02C1263.02,309.32,1263.54,310.11,1264.1,310.87z"/>
	<path class="st81" d="M1264.1,310.87c-0.74-2.53-2.52-4.66-1.72-7.74c1.4-5.4,5.32-7.93,10.7-6.3c1.14,0.34,2.25,0.78,3.37,1.18
		c-3.79-4.51-11.84-2.95-14.4,2.73C1260.38,304.45,1261,308.3,1264.1,310.87z"/>
	<path class="st82" d="M1159.65,581.58c-1.74-1.95-3.52-3.76-3.73-6.7c-0.3-4.16,1.74-6.88,4.79-9.18
		c-2.85,0.79-5.57,4.21-5.74,7.25C1154.72,577.21,1156.38,580.26,1159.65,581.58z"/>
	<path class="st83" d="M1222.42,527.58c-4.68,1.78-8.84,1.12-12.37-2.59C1212.32,529.81,1218.58,531.12,1222.42,527.58z"/>
	<path class="st84" d="M1209.02,414.85c-0.16-2.26,0.28-4.47,0.52-6.7C1208.39,410.3,1207.18,412.46,1209.02,414.85z"/>
	<path class="st84" d="M1209.53,408.15c0.85-0.43,1.47-1.03,1.56-2.04C1210.22,406.51,1209.6,407.12,1209.53,408.15z"/>
	<path class="st85" d="M1061.81,409.7c0.29-2.21-0.53-4.5,0.46-6.66c0.04-0.68,0.06-1.37,0.12-2.04c0.15-1.6-0.4-2.5-2.17-2.21
		c-2.2,0.36-4.55-0.76-6.64,0.69c0.17,1,0.34,2.01,0.51,3.01C1056.09,405.51,1058.71,407.86,1061.81,409.7z"/>
	<path class="st86" d="M1155.46,145.65"/>
	<path class="st86" d="M1168.87,134.34"/>
	<path class="st86" d="M1160.14,134.36"/>
	<path class="st19" d="M1173.54,250.72c-0.03-5.2-3.7-8.78-8.99-8.78c-4.88,0-9.13,4.11-8.99,8.69c0.17,5.27,4.07,9.18,9.15,9.17
		C1169.64,259.79,1173.57,255.74,1173.54,250.72z"/>
	<path class="st21" d="M1051.46,408.84c0-2.65-0.04-5.31,0.02-7.96c0.03-1.53-0.61-2.17-2.14-2.13c-2.22,0.06-4.45,0.06-6.67,0
		c-1.79-0.05-2.38,0.74-2.36,2.48c0.07,5.05,0.06,10.1-0.01,15.15c-0.02,1.46,0.56,2.04,1.94,2.04c2.4-0.01,4.79-0.03,7.19,0.01
		c1.5,0.02,2.16-0.53,2.09-2.14c-0.11-2.48-0.03-4.96-0.03-7.44C1051.46,408.84,1051.46,408.84,1051.46,408.84z"/>
	<path class="st2" d="M1159.12,96.22c3.1,1.34,6.22,2.33,9.5,0.52c3.96-2.19,5.52-6.66,3.8-10.91c-0.26-0.64-0.55-1.24-0.45-1.95
		c-3.92-4.52-9.48-5.04-13.47-1.27C1154.34,86.54,1154.59,91.88,1159.12,96.22z"/>
	<path class="st87" d="M1061.81,409.7c-2.57-2.4-5.14-4.81-7.71-7.21c-0.04,4.68-0.04,9.36-0.15,14.04
		c-0.02,0.89,0.22,1.27,1.03,1.37c0.17,0.02,0.34,0.01,0.51,0.03c6.32,0.6,6.32,0.6,6.32-5.67
		C1061.81,411.4,1061.81,410.55,1061.81,409.7z"/>
	<path class="st32" d="M980.11,517.22c0-2.14-0.08-4.29,0.03-6.42c0.09-1.82-0.69-2.42-2.42-2.4c-4.37,0.05-8.74,0.03-13.1-0.01
		c-1.7-0.02-2.55,0.73-2.55,2.44c0.01,4.28,0.01,8.56-0.01,12.85c-0.01,1.63,0.89,2.37,2.38,2.39c4.54,0.03,9.08,0.02,13.62-0.02
		c1.71-0.02,2.42-0.93,2.27-2.67c-0.18-2.04-0.2-4.1-0.29-6.15C980.05,517.22,980.08,517.22,980.11,517.22z"/>
	<path class="st3" d="M1022.96,508.39c-2.14,0-4.29,0.08-6.43-0.02c-1.69-0.08-2.42,0.79-2.44,2.26c-0.07,4.46-0.08,8.92-0.04,13.37
		c0.01,1.48,0.99,2.09,2.39,2.09c4.46-0.01,8.92-0.02,13.37-0.03c1.44,0,2.21-0.55,2.19-2.14c-0.06-4.46-0.07-8.92-0.01-13.37
		c0.02-1.54-0.55-2.19-2.09-2.15c-2.31,0.06-4.63,0.01-6.94,0.01C1022.96,508.41,1022.96,508.4,1022.96,508.39z"/>
	<path class="st35" d="M1015,408.76c0,2.48,0.07,4.97-0.03,7.44c-0.06,1.53,0.43,2.22,2.03,2.17c2.14-0.07,4.28-0.03,6.42-0.02
		c1.67,0.01,2.42-0.57,2.37-2.44c-0.14-4.79-0.12-9.58-0.02-14.37c0.04-1.96-0.54-2.86-2.62-2.72c-2.05,0.13-4.11,0.08-6.16,0.01
		c-1.46-0.06-2.01,0.6-1.99,1.98C1015.02,403.45,1015,406.11,1015,408.76z"/>
	<path class="st3" d="M1023.17,474.12c2.23,0,4.45-0.02,6.68,0.01c1.5,0.02,2.17-0.61,2.15-2.15c-0.05-4.45-0.06-8.91,0.01-13.36
		c0.02-1.62-0.79-2.12-2.2-2.13c-4.45-0.01-8.91-0.03-13.36-0.02c-1.7,0-2.45,0.91-2.44,2.6c0.03,4.11,0.03,8.22,0,12.33
		c-0.01,1.88,0.67,2.87,2.73,2.76C1018.88,474.04,1021.03,474.13,1023.17,474.12C1023.17,474.13,1023.17,474.13,1023.17,474.12z"/>
	<path class="st50" d="M835.91,403.5c0.06,4.34,0.15,8.68,0.15,13.02c0,0.84-0.02,1.52,0.84,1.9c2.64-0.03,5.29-0.14,7.93-0.08
		c1.72,0.04,2.44-0.51,2.4-2.36c-0.1-5.04-0.07-10.08,0-15.11c0.03-1.84-0.59-2.67-2.53-2.55c-2.72,0.16-5.45,0.15-8.18,0.21
		C835.47,400.08,836.1,401.84,835.91,403.5z"/>
	<path class="st50" d="M810.19,417.01c0.01,0.25,0.02,0.51,0.03,0.76c3.33,0.46,6.68,0.18,10.02,0.22c0.97,0.01,1.7-0.19,1.64-1.41
		c-0.25-5.3,0.33-10.63-0.45-15.93c-0.21-1.44-0.87-1.88-2.2-1.86c-2.06,0.04-4.12,0.08-6.17-0.02c-1.75-0.08-2.46,0.55-2.43,2.37
		c0.07,4.37,0,8.75-0.04,13.12C810.57,415.19,810.83,416.17,810.19,417.01z"/>
	<path class="st50" d="M834.33,398.35c-2.92-0.02-5.83,0-8.75-0.07c-1.67-0.04-2.38,0.3-2.29,2.31c0.24,5.14,0.18,10.29,0.1,15.43
		c-0.03,1.75,0.45,2.51,2.3,2.4c2.39-0.13,4.8-0.04,7.2-0.06c0.9-0.01,1.81-0.09,1.81-1.3c0-5.83-0.03-11.65-0.07-17.48
		C834.64,399.18,834.44,398.77,834.33,398.35L834.33,398.35z"/>
	<path class="st3" d="M980.11,465.23c0-2.13-0.08-4.27,0.03-6.39c0.08-1.71-0.74-2.33-2.28-2.34c-4.45-0.01-8.89-0.04-13.34-0.01
		c-1.61,0.01-2.49,0.82-2.47,2.57c0.05,4.19,0.03,8.38,0.01,12.57c0,1.71,0.84,2.5,2.53,2.49c4.53-0.02,9.06-0.01,13.59-0.02
		c1.47,0,2.15-0.62,2.06-2.21c-0.12-2.21-0.03-4.44-0.03-6.66C980.18,465.23,980.14,465.23,980.11,465.23z"/>
	<path class="st50" d="M797.84,398.95c-0.04,5.73-0.04,11.46-0.15,17.19c-0.03,1.32,0.36,1.91,1.68,1.91c2.65-0.01,5.3,0,7.96,0.03
		c1.14,0.01,1.72-0.38,1.67-1.65c-0.22-5.21,0.18-10.43-0.25-15.64c-0.11-1.37-0.48-2.08-1.94-2.03
		C803.81,398.84,800.82,398.88,797.84,398.95C797.84,398.95,797.84,398.95,797.84,398.95z"/>
	<path class="st76" d="M797.26,398.94c-0.17-0.03-0.34-0.06-0.51-0.09c0,5.79,0,11.58,0,17.37c0.17,0,0.34,0,0.51,0.01
		C797.26,410.47,797.26,404.71,797.26,398.94z"/>
	<path class="st32" d="M815.67,630.05c2.14,0,4.29-0.05,6.43,0.02c1.66,0.06,2.39-0.76,2.4-2.3c0.03-4.46,0.02-8.92-0.01-13.38
		c-0.01-1.67-0.9-2.44-2.61-2.42c-4.2,0.05-8.41,0.07-12.61-0.01c-1.68-0.03-2.48,0.86-2.51,2.27c-0.12,4.54-0.15,9.08-0.07,13.63
		c0.03,1.44,0.9,2.31,2.55,2.24c2.14-0.08,4.29-0.02,6.43-0.02C815.67,630.06,815.67,630.05,815.67,630.05z"/>
	<path class="st15" d="M824.54,611.46c-1.19-0.83-2.39-0.74-3.6-0.05C822.14,611.42,823.34,611.44,824.54,611.46z"/>
	<path class="st32" d="M978.91,560.05c-4.53,0.02-9.07,0.11-13.6,0.01c-2.23-0.05-3.2,1.03-3.23,3.04
		c-0.07,4.19-0.05,8.38-0.02,12.57c0.01,1.72,1.08,2.42,2.68,2.42c4.28,0.01,8.55-0.03,12.83-0.01c1.94,0.01,2.94-0.94,2.75-2.84
		c-0.4-4.1-0.13-8.2-0.19-12.31c-0.02-1.16-0.14-2.22-1.22-2.9C978.91,560.03,978.91,560.05,978.91,560.05z"/>
	<path class="st34" d="M988.17,417.35c-0.03-5.29-0.16-10.58-0.04-15.87c0.06-2.47-0.8-3.43-3.26-3.24
		c-2.04,0.15-4.1,0.07-6.14,0.06c-0.98-0.01-1.89,0.05-2.37,1.1c0.9,5.5,0.39,11.04,0.42,16.56c0.01,1.95,0.61,2.57,2.49,2.44
		c2.04-0.14,4.09-0.07,6.13-0.03C986.48,418.38,987.42,418.17,988.17,417.35z"/>
	<path class="st50" d="M954.76,398.39c-3.74,0.11-3.74,0.16-3.69,4.01c0.07,5.18,0.06,10.36,0.08,15.53
		c3.08,0.01,6.16,0.04,9.24,0.03c0.82,0,1.78,0.12,1.76-1.23c-0.09-5.56-0.14-11.11-0.23-16.67c-0.01-0.4-0.27-0.8-0.41-1.2
		C959.29,398.17,956.98,399,954.76,398.39z"/>
	<path class="st34" d="M963.55,416.93c0.27,0.57,0.64,0.98,1.35,0.98c2.99-0.01,5.98,0.01,8.97,0c0.72,0,1.41-0.11,1.29-1.12
		c-0.59-4.85-0.04-9.72-0.31-14.58c-0.18-3.23-0.33-3.34-3.66-3.34c-2.22,0-4.44-0.01-6.66-0.01c-0.94,0.03-1.15,0.8-1.15,1.43
		C963.32,405.84,962.92,411.39,963.55,416.93z"/>
	<path class="st77" d="M963.55,416.93c0.74-5.12,0.07-10.27,0.39-15.4c0.06-0.92-0.22-1.91,0.58-2.67c0-0.17-0.01-0.35-0.01-0.52
		c-0.69,0.2-1.38,0.4-2.07,0.6c0.03,5.12,0.06,10.23,0.1,15.35C962.55,415.28,962.32,416.39,963.55,416.93z"/>
	<path class="st77" d="M954.76,398.39c2.2,0.82,4.51,0.08,6.75,0.46c0.31,0.02,0.62,0.04,0.94,0.06c-0.79-1-1.85-0.89-2.95-0.76
		c-1.58,0.19-3.17,0.11-4.73-0.27C954.76,398.06,954.76,398.22,954.76,398.39z"/>
	<path class="st88" d="M975.85,398.87c-0.48-0.21-0.59-1-1.31-0.83c0.32,0.96,0.65,1.93,0.99,2.93c0.62-0.39,0.21-1.06,0.42-1.54
		C975.91,399.25,975.88,399.06,975.85,398.87z"/>
	<path class="st32" d="M1023.05,560.09c-1.97,0-3.95,0.13-5.91-0.04c-2-0.17-3,0.73-3.04,2.54c-0.11,4.37-0.12,8.74-0.04,13.1
		c0.03,1.54,0.92,2.45,2.68,2.42c4.2-0.08,8.39-0.07,12.59-0.03c1.77,0.02,2.73-0.55,2.69-2.51c-0.07-4.28-0.09-8.57-0.01-12.85
		c0.04-2.04-0.86-2.74-2.79-2.66C1027.16,560.17,1025.1,560.1,1023.05,560.09z"/>
	<path class="st89" d="M971.17,630.07c2.23,0,4.46,0.01,6.69,0c1.72-0.01,2.57-1,2.43-2.62c-0.37-4.2-0.15-8.4-0.14-12.6
		c0.01-2.13-0.96-2.92-2.96-2.9c-4.03,0.03-8.06,0.01-12.09,0c-1.87,0-2.97,0.95-3,2.77c-0.09,4.2-0.07,8.41-0.02,12.61
		c0.02,1.85,1,2.81,2.93,2.77c2.06-0.05,4.12-0.01,6.18-0.01C971.17,630.08,971.17,630.08,971.17,630.07z"/>
	<path class="st90" d="M772.06,408.48c0,2.48,0.12,4.97-0.04,7.44c-0.1,1.57,0.47,2.26,1.94,2.28c2.73,0.04,5.47,0,8.21,0.04
		c1.09,0.02,1.26-0.62,1.26-1.49c0-5.48,0-10.95,0.02-16.43c0.01-1.42-0.72-2.01-2.05-2.01c-2.4-0.01-4.79-0.02-7.19-0.01
		c-1.63,0.01-2.24,0.91-2.21,2.47c0.04,2.57,0.01,5.13,0.01,7.7C772.02,408.48,772.04,408.48,772.06,408.48z"/>
	<path class="st91" d="M1002.97,418.28c2.65,0.04,5.3,0.06,7.94,0.11c1.48,0.03,2.11-0.55,2.08-2.15
		c-0.1-5.04-0.11-10.09-0.02-15.13c0.03-1.82-0.62-2.43-2.38-2.35c-1.96,0.09-3.93-0.04-5.89-0.07c-0.18,0.09-0.37,0.18-0.55,0.28
		c-0.86,2.37-0.72,4.84-0.74,7.29c-0.02,2.72-0.01,5.44-0.01,8.16c0,1.04-0.01,2.05-0.8,2.85
		C1002.73,417.61,1002.85,417.95,1002.97,418.28z"/>
	<path class="st92" d="M1002.61,417.27c0.9-0.15,1.68-0.48,1.68-1.56c-0.03-5.58-0.08-11.16-0.13-16.74
		c-1.76-0.2-1.64,1.01-1.63,2.16C1002.56,406.51,1002.59,411.89,1002.61,417.27z"/>
	<path class="st18" d="M1001.6,397.86c-0.67-0.36-1.37-0.62-2.16-0.47c0.54,0.34,1.07,0.67,1.61,1.01
		C1001.24,398.21,1001.42,398.03,1001.6,397.86z"/>
	<path class="st50" d="M887.74,417.41c2.82,0,5.38-0.05,7.94,0.02c1.41,0.04,1.99-0.43,1.97-1.9c-0.06-4.78-0.05-9.57-0.01-14.36
		c0.01-1.34-0.51-1.83-1.82-1.79c-2.13,0.06-4.27,0.03-6.41,0.01c-1.12-0.01-1.26,0.33-1.21,1.52c0.19,4.69,0.15,9.39,0.13,14.09
		C888.33,415.73,887.98,416.46,887.74,417.41z"/>
	<path class="st32" d="M867.49,611.97c-2.06,0-4.12,0.05-6.17-0.02c-1.7-0.06-2.68,0.71-2.71,2.35c-0.08,4.54-0.07,9.09-0.05,13.63
		c0.01,1.44,0.81,2.14,2.3,2.13c4.37-0.03,8.74-0.04,13.12-0.01c1.66,0.01,2.41-0.98,2.44-2.38c0.08-4.46,0.09-8.91-0.02-13.37
		c-0.04-1.56-0.99-2.44-2.73-2.36C871.61,612.05,869.55,611.97,867.49,611.97z"/>
	<path class="st34" d="M859.43,418.31c0.72-0.68,0.48-1.55,0.48-2.38c0.03-4.48,0.08-8.96,0.12-13.43c0.19-0.19,0.28-0.41,0.28-0.67
		c-0.19-0.97,0.06-2.06-0.82-2.83c-2.82-0.06-5.63-0.13-8.45-0.19c-1.24-0.03-1.77,0.49-1.93,1.8c-0.66,5.37-0.08,10.75-0.33,16.12
		c-0.06,1.39,0.86,1.19,1.7,1.26C853.46,418.2,856.46,417.72,859.43,418.31z"/>
	<path class="st52" d="M859.5,398.99c0.17,1.02,0.34,2.03,0.51,3.05c0.92-1.02,0.48-2.11,0.17-3.2c-0.21-0.16-0.43-0.32-0.64-0.49
		C859.52,398.56,859.51,398.78,859.5,398.99z"/>
	<path class="st34" d="M861.73,399.49c0.04,5.64,0.57,11.27,0.07,16.91c-0.13,1.48,0.89,1.6,2.02,1.63
		c2.82,0.07,5.65-0.22,8.46,0.22c1.1-1.15,0.19-2.46,0.21-3.67c0.08-4.52-0.06-9.04,0.01-13.57c0.03-1.71-0.67-2.39-2.26-2.19
		C867.41,399.18,864.46,398,861.73,399.49z"/>
	<path class="st61" d="M885.27,397.87c-3.6-0.86-7.19-0.89-10.79,0.01C878.07,397.87,881.67,397.87,885.27,397.87z"/>
	<path class="st93" d="M861.62,397.86c0.01,0.19,0.02,0.38,0.04,0.56c3.59-0.03,7.17-0.05,10.76-0.08
		C868.86,397.29,865.21,398.13,861.62,397.86z"/>
	<path class="st32" d="M910.42,621.24c0,2.06,0.05,4.12-0.02,6.17c-0.05,1.73,0.76,2.59,2.43,2.6c4.37,0.03,8.75,0.01,13.12,0.01
		c1.78,0,2.43-1.15,2.45-2.68c0.05-4.12,0.06-8.24-0.03-12.35c-0.04-2.02-1.11-3.08-3.3-3.03c-3.86,0.09-7.72,0.06-11.58,0
		c-2.18-0.03-3.15,0.91-3.07,3.1c0.07,2.06,0.02,4.12,0.02,6.17C910.43,621.24,910.42,621.24,910.42,621.24z"/>
	<path class="st50" d="M899.73,399.48c0.03,5.45,0.14,10.91,0.03,16.36c-0.04,1.78,0.64,2.2,2.18,2.27c2.8,0.12,5.62-0.3,8.41,0.22
		c0.48-0.36,0.91-0.7,0.9-1.43c-0.1-5.11-0.25-10.22-0.19-15.33c0.03-2.33-0.95-3.08-3.07-2.8
		C905.24,399.13,902.37,397.99,899.73,399.48z"/>
	<path class="st50" d="M923.28,418.29c0.61-0.48,0.62-1.13,0.61-1.85c-0.06-5.04-0.13-10.08-0.07-15.12
		c0.02-1.87-0.61-2.65-2.52-2.54c-2.72,0.15-5.46,0.15-8.19,0.21c-0.47,5.85,0.22,11.73-0.4,17.58c-0.16,1.5,1.16,1.42,2.16,1.48
		C917.67,418.22,920.49,417.77,923.28,418.29z"/>
	<path class="st59" d="M912.5,398.79c-0.31,0-0.61,0-0.92,0c0,0.73,0,1.45,0,2.31C912.58,400.45,912.52,399.62,912.5,398.79z"/>
	<path class="st34" d="M936.72,417.88c-0.02-6.29-0.04-12.57-0.06-18.86c-3.09-1.11-6.26-0.56-9.4-0.42
		c-1.27,0.06-1.85,0.95-1.84,2.31c0.03,5.14,0.01,10.27-0.08,15.41c-0.02,1.26,0.47,1.7,1.63,1.68
		C930.22,417.95,933.47,417.92,936.72,417.88z"/>
	<path class="st63" d="M935.76,397.82c-2.96-0.73-5.92-0.66-8.88-0.02C929.84,397.81,932.8,397.82,935.76,397.82z"/>
	<path class="st34" d="M884.9,409.23c0-2.83-0.13-5.66,0.06-8.47c0.08-1.15-0.25-1.36-1.18-1.35c-0.09,0-0.17,0-0.26,0
		c-8.03-0.56-8.03-0.56-8.03,7.4c0,2.74,0.08,5.49-0.03,8.23c-0.06,1.7,0.36,2.53,2.26,2.42c2.05-0.12,4.11-0.05,6.16,0.11
		c1.09,0.08,1.02-0.27,0.99-1.14c-0.1-2.39-0.03-4.8-0.03-7.2C884.86,409.23,884.88,409.23,884.9,409.23z"/>
	<path class="st50" d="M938.82,398.41c-0.84,0.91-0.66,2.03-0.68,3.13c-0.13,5.24,0.39,10.48-0.25,15.71
		c0.51,0.94,1.42,0.81,2.26,0.81c2.4,0.01,4.8-0.04,7.19,0.03c1.55,0.04,2.29-0.31,2.24-2.15c-0.13-4.88-0.08-9.76,0.03-14.64
		c0.04-2.08-0.74-3.01-2.84-2.96C944.12,398.43,941.47,398.4,938.82,398.41z"/>
	<path class="st63" d="M948.65,397.83c-3.15-0.74-6.3-0.69-9.46-0.03C942.34,397.8,945.49,397.81,948.65,397.83z"/>
	<path class="st18" d="M1004.68,397.84c-0.86-0.74-1.72-0.74-2.57,0.01C1002.97,397.84,1003.82,397.84,1004.68,397.84z"/>
	<path class="st93" d="M860.18,398.84c-0.06,1.07-0.11,2.13-0.17,3.2c-0.05,0.15-0.04,0.31,0.02,0.45c0.8,0.44,0.3,1.38,1.1,2.41
		c0-2.11,0-3.78,0-5.44C860.81,399.25,860.49,399.05,860.18,398.84z"/>
	<path class="st94" d="M898.6,416.46c1.11-1.36,0.48-2.96,0.53-4.44c0.11-2.8,0.03-5.61-0.53-8.42
		C898.6,407.89,898.6,412.17,898.6,416.46C898.6,416.46,898.6,416.46,898.6,416.46z"/>
	<path class="st61" d="M897.68,397.8c-3.12-0.76-6.25-0.73-9.38-0.02C891.42,397.79,894.55,397.79,897.68,397.8z"/>
	<path class="st6" d="M850.79,397.34c2.4,0.83,4.8,0.83,7.21,0C855.59,397.34,853.19,397.34,850.79,397.34z"/>
	<path class="st2" d="M1156.03,140.5c-0.64,4.07,0.59,7.48,3.65,10.24c5.67,2.31,9.81,1.38,12.43-2.78
		c2.55-4.06,1.9-8.55-1.69-11.75c-0.51-0.45-1.04-0.88-1.57-1.32c-3.7-0.93-7.28-1.21-10.35,1.74
		C1157.34,137.73,1156.68,139.11,1156.03,140.5z"/>
	<path class="st50" d="M824.02,408.53c0,2.31,0.05,4.62-0.02,6.92c-0.04,1.4,0.41,2.04,1.89,1.98c2.05-0.08,4.1-0.07,6.15,0
		c1.36,0.05,1.78-0.56,1.77-1.84c-0.04-4.79-0.04-9.57,0-14.36c0.01-1.28-0.41-1.77-1.76-1.86c-8.04-0.55-8.03-0.58-8.03,7.37
		C824.02,407.34,824.02,407.93,824.02,408.53z"/>
</g>
</svg>
